M48
; DRILL file {KiCad 9.0.3} date 2025-08-21T17:44:19+0200
; FORMAT={-:-/ absolute / metric / decimal}
; #@! TF.CreationDate,2025-08-21T17:44:19+02:00
; #@! TF.GenerationSoftware,Kicad,Pcbnew,9.0.3
; #@! TF.FileFunction,Plated,1,2,PTH
FMAT,2
METRIC
; #@! TA.AperFunction,Plated,PTH,ViaDrill
T1C0.300
; #@! TA.AperFunction,Plated,PTH,ComponentDrill
T2C1.000
; #@! TA.AperFunction,Plated,PTH,ComponentDrill
T3C1.300
%
G90
G05
T1
X36.65Y-41.39
X41.4Y-38.9
X41.509Y-35.565
X42.436Y-36.336
X42.55Y-50.9
X42.655Y-47.379
X43.099Y-48.899
X44.705Y-31.7
X46.076Y-36.805
X46.4Y-48.55
X46.6Y-45.45
X46.65Y-33.2
X47.25Y-36.4
X47.3Y-51.4
X47.8Y-48.45
X48.952Y-33.344
X49.55Y-42.95
X49.858Y-54.2
X51.85Y-51.4
X52.0Y-48.45
X52.05Y-36.96
X52.689Y-50.14
X52.7Y-45.75
X53.6Y-35.76
X55.75Y-35.05
X57.2Y-48.4
X57.45Y-39.15
X58.4Y-34.65
X60.1Y-48.35
X61.076Y-37.576
T2
X35.25Y-33.77
X35.25Y-36.31
X35.25Y-38.85
X35.25Y-41.39
X35.25Y-43.93
X35.25Y-46.47
X35.25Y-49.01
X35.25Y-51.55
X57.45Y-45.2
X64.0Y-32.96
X64.0Y-35.5
X64.0Y-38.04
X64.0Y-40.58
X64.0Y-43.12
X64.0Y-45.66
X64.0Y-48.2
X64.0Y-50.74
T3
X54.75Y-33.3
X59.75Y-33.3
M30
