%TF.GenerationSoftware,KiCad,Pcbnew,9.0.3*%
%TF.CreationDate,2025-08-21T17:44:14+02:00*%
%TF.ProjectId,Tri-State-Buffer,5472692d-5374-4617-9465-2d4275666665,rev?*%
%TF.SameCoordinates,Original*%
%TF.FileFunction,Legend,Top*%
%TF.FilePolarity,Positive*%
%FSLAX46Y46*%
G04 Gerber Fmt 4.6, Leading zero omitted, Abs format (unit mm)*
G04 Created by KiCad (PCBNEW 9.0.3) date 2025-08-21 17:44:14*
%MOMM*%
%LPD*%
G01*
G04 APERTURE LIST*
%ADD10C,0.150000*%
%ADD11C,0.100000*%
%ADD12C,0.120000*%
G04 APERTURE END LIST*
D10*
X58838095Y-49904819D02*
X58838095Y-48904819D01*
X58838095Y-49381009D02*
X59409523Y-49381009D01*
X59409523Y-49904819D02*
X59409523Y-48904819D01*
X59790476Y-48904819D02*
X60409523Y-48904819D01*
X60409523Y-48904819D02*
X60076190Y-49285771D01*
X60076190Y-49285771D02*
X60219047Y-49285771D01*
X60219047Y-49285771D02*
X60314285Y-49333390D01*
X60314285Y-49333390D02*
X60361904Y-49381009D01*
X60361904Y-49381009D02*
X60409523Y-49476247D01*
X60409523Y-49476247D02*
X60409523Y-49714342D01*
X60409523Y-49714342D02*
X60361904Y-49809580D01*
X60361904Y-49809580D02*
X60314285Y-49857200D01*
X60314285Y-49857200D02*
X60219047Y-49904819D01*
X60219047Y-49904819D02*
X59933333Y-49904819D01*
X59933333Y-49904819D02*
X59838095Y-49857200D01*
X59838095Y-49857200D02*
X59790476Y-49809580D01*
X58438095Y-35704819D02*
X58438095Y-34704819D01*
X58438095Y-35181009D02*
X59009523Y-35181009D01*
X59009523Y-35704819D02*
X59009523Y-34704819D01*
X59438095Y-34800057D02*
X59485714Y-34752438D01*
X59485714Y-34752438D02*
X59580952Y-34704819D01*
X59580952Y-34704819D02*
X59819047Y-34704819D01*
X59819047Y-34704819D02*
X59914285Y-34752438D01*
X59914285Y-34752438D02*
X59961904Y-34800057D01*
X59961904Y-34800057D02*
X60009523Y-34895295D01*
X60009523Y-34895295D02*
X60009523Y-34990533D01*
X60009523Y-34990533D02*
X59961904Y-35133390D01*
X59961904Y-35133390D02*
X59390476Y-35704819D01*
X59390476Y-35704819D02*
X60009523Y-35704819D01*
X38988095Y-40004819D02*
X38988095Y-39004819D01*
X38988095Y-39481009D02*
X39559523Y-39481009D01*
X39559523Y-40004819D02*
X39559523Y-39004819D01*
X40559523Y-40004819D02*
X39988095Y-40004819D01*
X40273809Y-40004819D02*
X40273809Y-39004819D01*
X40273809Y-39004819D02*
X40178571Y-39147676D01*
X40178571Y-39147676D02*
X40083333Y-39242914D01*
X40083333Y-39242914D02*
X39988095Y-39290533D01*
X63666666Y-52574819D02*
X63666666Y-53289104D01*
X63666666Y-53289104D02*
X63619047Y-53431961D01*
X63619047Y-53431961D02*
X63523809Y-53527200D01*
X63523809Y-53527200D02*
X63380952Y-53574819D01*
X63380952Y-53574819D02*
X63285714Y-53574819D01*
X64095238Y-52670057D02*
X64142857Y-52622438D01*
X64142857Y-52622438D02*
X64238095Y-52574819D01*
X64238095Y-52574819D02*
X64476190Y-52574819D01*
X64476190Y-52574819D02*
X64571428Y-52622438D01*
X64571428Y-52622438D02*
X64619047Y-52670057D01*
X64619047Y-52670057D02*
X64666666Y-52765295D01*
X64666666Y-52765295D02*
X64666666Y-52860533D01*
X64666666Y-52860533D02*
X64619047Y-53003390D01*
X64619047Y-53003390D02*
X64047619Y-53574819D01*
X64047619Y-53574819D02*
X64666666Y-53574819D01*
D11*
X59277693Y-34620038D02*
X59182455Y-34572419D01*
X59182455Y-34572419D02*
X59039598Y-34572419D01*
X59039598Y-34572419D02*
X58896741Y-34620038D01*
X58896741Y-34620038D02*
X58801503Y-34715276D01*
X58801503Y-34715276D02*
X58753884Y-34810514D01*
X58753884Y-34810514D02*
X58706265Y-35000990D01*
X58706265Y-35000990D02*
X58706265Y-35143847D01*
X58706265Y-35143847D02*
X58753884Y-35334323D01*
X58753884Y-35334323D02*
X58801503Y-35429561D01*
X58801503Y-35429561D02*
X58896741Y-35524800D01*
X58896741Y-35524800D02*
X59039598Y-35572419D01*
X59039598Y-35572419D02*
X59134836Y-35572419D01*
X59134836Y-35572419D02*
X59277693Y-35524800D01*
X59277693Y-35524800D02*
X59325312Y-35477180D01*
X59325312Y-35477180D02*
X59325312Y-35143847D01*
X59325312Y-35143847D02*
X59134836Y-35143847D01*
X59753884Y-35572419D02*
X59753884Y-34572419D01*
X59753884Y-34572419D02*
X60325312Y-35572419D01*
X60325312Y-35572419D02*
X60325312Y-34572419D01*
X60801503Y-35572419D02*
X60801503Y-34572419D01*
X60801503Y-34572419D02*
X61039598Y-34572419D01*
X61039598Y-34572419D02*
X61182455Y-34620038D01*
X61182455Y-34620038D02*
X61277693Y-34715276D01*
X61277693Y-34715276D02*
X61325312Y-34810514D01*
X61325312Y-34810514D02*
X61372931Y-35000990D01*
X61372931Y-35000990D02*
X61372931Y-35143847D01*
X61372931Y-35143847D02*
X61325312Y-35334323D01*
X61325312Y-35334323D02*
X61277693Y-35429561D01*
X61277693Y-35429561D02*
X61182455Y-35524800D01*
X61182455Y-35524800D02*
X61039598Y-35572419D01*
X61039598Y-35572419D02*
X60801503Y-35572419D01*
X53511027Y-34672419D02*
X53844360Y-35672419D01*
X53844360Y-35672419D02*
X54177693Y-34672419D01*
X54939598Y-35624800D02*
X54844360Y-35672419D01*
X54844360Y-35672419D02*
X54653884Y-35672419D01*
X54653884Y-35672419D02*
X54558646Y-35624800D01*
X54558646Y-35624800D02*
X54511027Y-35577180D01*
X54511027Y-35577180D02*
X54463408Y-35481942D01*
X54463408Y-35481942D02*
X54463408Y-35196228D01*
X54463408Y-35196228D02*
X54511027Y-35100990D01*
X54511027Y-35100990D02*
X54558646Y-35053371D01*
X54558646Y-35053371D02*
X54653884Y-35005752D01*
X54653884Y-35005752D02*
X54844360Y-35005752D01*
X54844360Y-35005752D02*
X54939598Y-35053371D01*
X55796741Y-35624800D02*
X55701503Y-35672419D01*
X55701503Y-35672419D02*
X55511027Y-35672419D01*
X55511027Y-35672419D02*
X55415789Y-35624800D01*
X55415789Y-35624800D02*
X55368170Y-35577180D01*
X55368170Y-35577180D02*
X55320551Y-35481942D01*
X55320551Y-35481942D02*
X55320551Y-35196228D01*
X55320551Y-35196228D02*
X55368170Y-35100990D01*
X55368170Y-35100990D02*
X55415789Y-35053371D01*
X55415789Y-35053371D02*
X55511027Y-35005752D01*
X55511027Y-35005752D02*
X55701503Y-35005752D01*
X55701503Y-35005752D02*
X55796741Y-35053371D01*
X46233609Y-53466667D02*
X46281228Y-53323810D01*
X46281228Y-53323810D02*
X46328847Y-53276191D01*
X46328847Y-53276191D02*
X46424085Y-53228572D01*
X46424085Y-53228572D02*
X46566942Y-53228572D01*
X46566942Y-53228572D02*
X46662180Y-53276191D01*
X46662180Y-53276191D02*
X46709800Y-53323810D01*
X46709800Y-53323810D02*
X46757419Y-53419048D01*
X46757419Y-53419048D02*
X46757419Y-53800000D01*
X46757419Y-53800000D02*
X45757419Y-53800000D01*
X45757419Y-53800000D02*
X45757419Y-53466667D01*
X45757419Y-53466667D02*
X45805038Y-53371429D01*
X45805038Y-53371429D02*
X45852657Y-53323810D01*
X45852657Y-53323810D02*
X45947895Y-53276191D01*
X45947895Y-53276191D02*
X46043133Y-53276191D01*
X46043133Y-53276191D02*
X46138371Y-53323810D01*
X46138371Y-53323810D02*
X46185990Y-53371429D01*
X46185990Y-53371429D02*
X46233609Y-53466667D01*
X46233609Y-53466667D02*
X46233609Y-53800000D01*
X46090752Y-52371429D02*
X46757419Y-52371429D01*
X46090752Y-52800000D02*
X46614561Y-52800000D01*
X46614561Y-52800000D02*
X46709800Y-52752381D01*
X46709800Y-52752381D02*
X46757419Y-52657143D01*
X46757419Y-52657143D02*
X46757419Y-52514286D01*
X46757419Y-52514286D02*
X46709800Y-52419048D01*
X46709800Y-52419048D02*
X46662180Y-52371429D01*
X46090752Y-52038095D02*
X46090752Y-51657143D01*
X46757419Y-51895238D02*
X45900276Y-51895238D01*
X45900276Y-51895238D02*
X45805038Y-51847619D01*
X45805038Y-51847619D02*
X45757419Y-51752381D01*
X45757419Y-51752381D02*
X45757419Y-51657143D01*
X46090752Y-51466666D02*
X46090752Y-51085714D01*
X46757419Y-51323809D02*
X45900276Y-51323809D01*
X45900276Y-51323809D02*
X45805038Y-51276190D01*
X45805038Y-51276190D02*
X45757419Y-51180952D01*
X45757419Y-51180952D02*
X45757419Y-51085714D01*
X46709800Y-50371428D02*
X46757419Y-50466666D01*
X46757419Y-50466666D02*
X46757419Y-50657142D01*
X46757419Y-50657142D02*
X46709800Y-50752380D01*
X46709800Y-50752380D02*
X46614561Y-50799999D01*
X46614561Y-50799999D02*
X46233609Y-50799999D01*
X46233609Y-50799999D02*
X46138371Y-50752380D01*
X46138371Y-50752380D02*
X46090752Y-50657142D01*
X46090752Y-50657142D02*
X46090752Y-50466666D01*
X46090752Y-50466666D02*
X46138371Y-50371428D01*
X46138371Y-50371428D02*
X46233609Y-50323809D01*
X46233609Y-50323809D02*
X46328847Y-50323809D01*
X46328847Y-50323809D02*
X46424085Y-50799999D01*
X46757419Y-49895237D02*
X46090752Y-49895237D01*
X46281228Y-49895237D02*
X46185990Y-49847618D01*
X46185990Y-49847618D02*
X46138371Y-49799999D01*
X46138371Y-49799999D02*
X46090752Y-49704761D01*
X46090752Y-49704761D02*
X46090752Y-49609523D01*
X46757419Y-48752380D02*
X46757419Y-49323808D01*
X46757419Y-49038094D02*
X45757419Y-49038094D01*
X45757419Y-49038094D02*
X45900276Y-49133332D01*
X45900276Y-49133332D02*
X45995514Y-49228570D01*
X45995514Y-49228570D02*
X46043133Y-49323808D01*
D10*
X46374866Y-51198904D02*
X46327247Y-51151285D01*
X46327247Y-51151285D02*
X46279628Y-51056047D01*
X46279628Y-51056047D02*
X46374866Y-50865571D01*
X46374866Y-50865571D02*
X46327247Y-50770333D01*
X46327247Y-50770333D02*
X46279628Y-50722714D01*
D11*
X47570466Y-53808115D02*
X47570466Y-53046211D01*
X47856180Y-51998592D02*
X47903800Y-52046211D01*
X47903800Y-52046211D02*
X47951419Y-52189068D01*
X47951419Y-52189068D02*
X47951419Y-52284306D01*
X47951419Y-52284306D02*
X47903800Y-52427163D01*
X47903800Y-52427163D02*
X47808561Y-52522401D01*
X47808561Y-52522401D02*
X47713323Y-52570020D01*
X47713323Y-52570020D02*
X47522847Y-52617639D01*
X47522847Y-52617639D02*
X47379990Y-52617639D01*
X47379990Y-52617639D02*
X47189514Y-52570020D01*
X47189514Y-52570020D02*
X47094276Y-52522401D01*
X47094276Y-52522401D02*
X46999038Y-52427163D01*
X46999038Y-52427163D02*
X46951419Y-52284306D01*
X46951419Y-52284306D02*
X46951419Y-52189068D01*
X46951419Y-52189068D02*
X46999038Y-52046211D01*
X46999038Y-52046211D02*
X47046657Y-51998592D01*
X46951419Y-51712877D02*
X46951419Y-51141449D01*
X47951419Y-51427163D02*
X46951419Y-51427163D01*
X47951419Y-50284306D02*
X47951419Y-50855734D01*
X47951419Y-50570020D02*
X46951419Y-50570020D01*
X46951419Y-50570020D02*
X47094276Y-50665258D01*
X47094276Y-50665258D02*
X47189514Y-50760496D01*
X47189514Y-50760496D02*
X47237133Y-50855734D01*
X47046657Y-49903353D02*
X46999038Y-49855734D01*
X46999038Y-49855734D02*
X46951419Y-49760496D01*
X46951419Y-49760496D02*
X46951419Y-49522401D01*
X46951419Y-49522401D02*
X46999038Y-49427163D01*
X46999038Y-49427163D02*
X47046657Y-49379544D01*
X47046657Y-49379544D02*
X47141895Y-49331925D01*
X47141895Y-49331925D02*
X47237133Y-49331925D01*
X47237133Y-49331925D02*
X47379990Y-49379544D01*
X47379990Y-49379544D02*
X47951419Y-49950972D01*
X47951419Y-49950972D02*
X47951419Y-49331925D01*
X46951419Y-48427163D02*
X46951419Y-48903353D01*
X46951419Y-48903353D02*
X47427609Y-48950972D01*
X47427609Y-48950972D02*
X47379990Y-48903353D01*
X47379990Y-48903353D02*
X47332371Y-48808115D01*
X47332371Y-48808115D02*
X47332371Y-48570020D01*
X47332371Y-48570020D02*
X47379990Y-48474782D01*
X47379990Y-48474782D02*
X47427609Y-48427163D01*
X47427609Y-48427163D02*
X47522847Y-48379544D01*
X47522847Y-48379544D02*
X47760942Y-48379544D01*
X47760942Y-48379544D02*
X47856180Y-48427163D01*
X47856180Y-48427163D02*
X47903800Y-48474782D01*
X47903800Y-48474782D02*
X47951419Y-48570020D01*
X47951419Y-48570020D02*
X47951419Y-48808115D01*
X47951419Y-48808115D02*
X47903800Y-48903353D01*
X47903800Y-48903353D02*
X47856180Y-48950972D01*
D10*
X48989295Y-53719649D02*
X48189295Y-53719649D01*
X48189295Y-53719649D02*
X48189295Y-53552982D01*
X48189295Y-53552982D02*
X48227390Y-53452982D01*
X48227390Y-53452982D02*
X48303580Y-53386316D01*
X48303580Y-53386316D02*
X48379771Y-53352982D01*
X48379771Y-53352982D02*
X48532152Y-53319649D01*
X48532152Y-53319649D02*
X48646438Y-53319649D01*
X48646438Y-53319649D02*
X48798819Y-53352982D01*
X48798819Y-53352982D02*
X48875009Y-53386316D01*
X48875009Y-53386316D02*
X48951200Y-53452982D01*
X48951200Y-53452982D02*
X48989295Y-53552982D01*
X48989295Y-53552982D02*
X48989295Y-53719649D01*
X48189295Y-52886316D02*
X48189295Y-52819649D01*
X48189295Y-52819649D02*
X48227390Y-52752982D01*
X48227390Y-52752982D02*
X48265485Y-52719649D01*
X48265485Y-52719649D02*
X48341676Y-52686316D01*
X48341676Y-52686316D02*
X48494057Y-52652982D01*
X48494057Y-52652982D02*
X48684533Y-52652982D01*
X48684533Y-52652982D02*
X48836914Y-52686316D01*
X48836914Y-52686316D02*
X48913104Y-52719649D01*
X48913104Y-52719649D02*
X48951200Y-52752982D01*
X48951200Y-52752982D02*
X48989295Y-52819649D01*
X48989295Y-52819649D02*
X48989295Y-52886316D01*
X48989295Y-52886316D02*
X48951200Y-52952982D01*
X48951200Y-52952982D02*
X48913104Y-52986316D01*
X48913104Y-52986316D02*
X48836914Y-53019649D01*
X48836914Y-53019649D02*
X48684533Y-53052982D01*
X48684533Y-53052982D02*
X48494057Y-53052982D01*
X48494057Y-53052982D02*
X48341676Y-53019649D01*
X48341676Y-53019649D02*
X48265485Y-52986316D01*
X48265485Y-52986316D02*
X48227390Y-52952982D01*
X48227390Y-52952982D02*
X48189295Y-52886316D01*
X48189295Y-52219649D02*
X48189295Y-52152982D01*
X48189295Y-52152982D02*
X48227390Y-52086315D01*
X48227390Y-52086315D02*
X48265485Y-52052982D01*
X48265485Y-52052982D02*
X48341676Y-52019649D01*
X48341676Y-52019649D02*
X48494057Y-51986315D01*
X48494057Y-51986315D02*
X48684533Y-51986315D01*
X48684533Y-51986315D02*
X48836914Y-52019649D01*
X48836914Y-52019649D02*
X48913104Y-52052982D01*
X48913104Y-52052982D02*
X48951200Y-52086315D01*
X48951200Y-52086315D02*
X48989295Y-52152982D01*
X48989295Y-52152982D02*
X48989295Y-52219649D01*
X48989295Y-52219649D02*
X48951200Y-52286315D01*
X48951200Y-52286315D02*
X48913104Y-52319649D01*
X48913104Y-52319649D02*
X48836914Y-52352982D01*
X48836914Y-52352982D02*
X48684533Y-52386315D01*
X48684533Y-52386315D02*
X48494057Y-52386315D01*
X48494057Y-52386315D02*
X48341676Y-52352982D01*
X48341676Y-52352982D02*
X48265485Y-52319649D01*
X48265485Y-52319649D02*
X48227390Y-52286315D01*
X48227390Y-52286315D02*
X48189295Y-52219649D01*
X48989295Y-51319648D02*
X48989295Y-51719648D01*
X48989295Y-51519648D02*
X48189295Y-51519648D01*
X48189295Y-51519648D02*
X48303580Y-51586315D01*
X48303580Y-51586315D02*
X48379771Y-51652982D01*
X48379771Y-51652982D02*
X48417866Y-51719648D01*
X48455961Y-50719648D02*
X48989295Y-50719648D01*
X48151200Y-50886315D02*
X48722628Y-51052981D01*
X48722628Y-51052981D02*
X48722628Y-50619648D01*
X48760723Y-50386314D02*
X48760723Y-50052981D01*
X48989295Y-50452981D02*
X48189295Y-50219648D01*
X48189295Y-50219648D02*
X48989295Y-49986314D01*
D11*
X43023503Y-53182514D02*
X43594931Y-53182514D01*
X43137789Y-53353942D02*
X43480646Y-53353942D01*
X43309217Y-52925371D02*
X43309217Y-53182514D01*
X43366360Y-53525371D02*
X43252074Y-53525371D01*
X46417503Y-46346371D02*
X46588931Y-46403514D01*
X46588931Y-46403514D02*
X46646074Y-46460657D01*
X46646074Y-46460657D02*
X46703217Y-46574942D01*
X46703217Y-46574942D02*
X46703217Y-46746371D01*
X46703217Y-46746371D02*
X46646074Y-46860657D01*
X46646074Y-46860657D02*
X46588931Y-46917800D01*
X46588931Y-46917800D02*
X46474646Y-46974942D01*
X46474646Y-46974942D02*
X46017503Y-46974942D01*
X46017503Y-46974942D02*
X46017503Y-45774942D01*
X46017503Y-45774942D02*
X46417503Y-45774942D01*
X46417503Y-45774942D02*
X46531789Y-45832085D01*
X46531789Y-45832085D02*
X46588931Y-45889228D01*
X46588931Y-45889228D02*
X46646074Y-46003514D01*
X46646074Y-46003514D02*
X46646074Y-46117800D01*
X46646074Y-46117800D02*
X46588931Y-46232085D01*
X46588931Y-46232085D02*
X46531789Y-46289228D01*
X46531789Y-46289228D02*
X46417503Y-46346371D01*
X46417503Y-46346371D02*
X46017503Y-46346371D01*
X47217503Y-45774942D02*
X47217503Y-46746371D01*
X47217503Y-46746371D02*
X47274646Y-46860657D01*
X47274646Y-46860657D02*
X47331789Y-46917800D01*
X47331789Y-46917800D02*
X47446074Y-46974942D01*
X47446074Y-46974942D02*
X47674646Y-46974942D01*
X47674646Y-46974942D02*
X47788931Y-46917800D01*
X47788931Y-46917800D02*
X47846074Y-46860657D01*
X47846074Y-46860657D02*
X47903217Y-46746371D01*
X47903217Y-46746371D02*
X47903217Y-45774942D01*
X48874646Y-46346371D02*
X48474646Y-46346371D01*
X48474646Y-46974942D02*
X48474646Y-45774942D01*
X48474646Y-45774942D02*
X49046074Y-45774942D01*
X51335646Y-45676800D02*
X51792789Y-45676800D01*
X51564217Y-45905371D02*
X51564217Y-45448228D01*
D10*
X34916666Y-53384819D02*
X34916666Y-54099104D01*
X34916666Y-54099104D02*
X34869047Y-54241961D01*
X34869047Y-54241961D02*
X34773809Y-54337200D01*
X34773809Y-54337200D02*
X34630952Y-54384819D01*
X34630952Y-54384819D02*
X34535714Y-54384819D01*
X35916666Y-54384819D02*
X35345238Y-54384819D01*
X35630952Y-54384819D02*
X35630952Y-53384819D01*
X35630952Y-53384819D02*
X35535714Y-53527676D01*
X35535714Y-53527676D02*
X35440476Y-53622914D01*
X35440476Y-53622914D02*
X35345238Y-53670533D01*
D11*
X46283609Y-40171667D02*
X46331228Y-40028810D01*
X46331228Y-40028810D02*
X46378847Y-39981191D01*
X46378847Y-39981191D02*
X46474085Y-39933572D01*
X46474085Y-39933572D02*
X46616942Y-39933572D01*
X46616942Y-39933572D02*
X46712180Y-39981191D01*
X46712180Y-39981191D02*
X46759800Y-40028810D01*
X46759800Y-40028810D02*
X46807419Y-40124048D01*
X46807419Y-40124048D02*
X46807419Y-40505000D01*
X46807419Y-40505000D02*
X45807419Y-40505000D01*
X45807419Y-40505000D02*
X45807419Y-40171667D01*
X45807419Y-40171667D02*
X45855038Y-40076429D01*
X45855038Y-40076429D02*
X45902657Y-40028810D01*
X45902657Y-40028810D02*
X45997895Y-39981191D01*
X45997895Y-39981191D02*
X46093133Y-39981191D01*
X46093133Y-39981191D02*
X46188371Y-40028810D01*
X46188371Y-40028810D02*
X46235990Y-40076429D01*
X46235990Y-40076429D02*
X46283609Y-40171667D01*
X46283609Y-40171667D02*
X46283609Y-40505000D01*
X46140752Y-39076429D02*
X46807419Y-39076429D01*
X46140752Y-39505000D02*
X46664561Y-39505000D01*
X46664561Y-39505000D02*
X46759800Y-39457381D01*
X46759800Y-39457381D02*
X46807419Y-39362143D01*
X46807419Y-39362143D02*
X46807419Y-39219286D01*
X46807419Y-39219286D02*
X46759800Y-39124048D01*
X46759800Y-39124048D02*
X46712180Y-39076429D01*
X46140752Y-38743095D02*
X46140752Y-38362143D01*
X46807419Y-38600238D02*
X45950276Y-38600238D01*
X45950276Y-38600238D02*
X45855038Y-38552619D01*
X45855038Y-38552619D02*
X45807419Y-38457381D01*
X45807419Y-38457381D02*
X45807419Y-38362143D01*
X46140752Y-38171666D02*
X46140752Y-37790714D01*
X46807419Y-38028809D02*
X45950276Y-38028809D01*
X45950276Y-38028809D02*
X45855038Y-37981190D01*
X45855038Y-37981190D02*
X45807419Y-37885952D01*
X45807419Y-37885952D02*
X45807419Y-37790714D01*
X46759800Y-37076428D02*
X46807419Y-37171666D01*
X46807419Y-37171666D02*
X46807419Y-37362142D01*
X46807419Y-37362142D02*
X46759800Y-37457380D01*
X46759800Y-37457380D02*
X46664561Y-37504999D01*
X46664561Y-37504999D02*
X46283609Y-37504999D01*
X46283609Y-37504999D02*
X46188371Y-37457380D01*
X46188371Y-37457380D02*
X46140752Y-37362142D01*
X46140752Y-37362142D02*
X46140752Y-37171666D01*
X46140752Y-37171666D02*
X46188371Y-37076428D01*
X46188371Y-37076428D02*
X46283609Y-37028809D01*
X46283609Y-37028809D02*
X46378847Y-37028809D01*
X46378847Y-37028809D02*
X46474085Y-37504999D01*
X46807419Y-36600237D02*
X46140752Y-36600237D01*
X46331228Y-36600237D02*
X46235990Y-36552618D01*
X46235990Y-36552618D02*
X46188371Y-36504999D01*
X46188371Y-36504999D02*
X46140752Y-36409761D01*
X46140752Y-36409761D02*
X46140752Y-36314523D01*
X45902657Y-36028808D02*
X45855038Y-35981189D01*
X45855038Y-35981189D02*
X45807419Y-35885951D01*
X45807419Y-35885951D02*
X45807419Y-35647856D01*
X45807419Y-35647856D02*
X45855038Y-35552618D01*
X45855038Y-35552618D02*
X45902657Y-35504999D01*
X45902657Y-35504999D02*
X45997895Y-35457380D01*
X45997895Y-35457380D02*
X46093133Y-35457380D01*
X46093133Y-35457380D02*
X46235990Y-35504999D01*
X46235990Y-35504999D02*
X46807419Y-36076427D01*
X46807419Y-36076427D02*
X46807419Y-35457380D01*
D10*
X46409866Y-38018904D02*
X46362247Y-37971285D01*
X46362247Y-37971285D02*
X46314628Y-37876047D01*
X46314628Y-37876047D02*
X46409866Y-37685571D01*
X46409866Y-37685571D02*
X46362247Y-37590333D01*
X46362247Y-37590333D02*
X46314628Y-37542714D01*
X49024295Y-40539649D02*
X48224295Y-40539649D01*
X48224295Y-40539649D02*
X48224295Y-40372982D01*
X48224295Y-40372982D02*
X48262390Y-40272982D01*
X48262390Y-40272982D02*
X48338580Y-40206316D01*
X48338580Y-40206316D02*
X48414771Y-40172982D01*
X48414771Y-40172982D02*
X48567152Y-40139649D01*
X48567152Y-40139649D02*
X48681438Y-40139649D01*
X48681438Y-40139649D02*
X48833819Y-40172982D01*
X48833819Y-40172982D02*
X48910009Y-40206316D01*
X48910009Y-40206316D02*
X48986200Y-40272982D01*
X48986200Y-40272982D02*
X49024295Y-40372982D01*
X49024295Y-40372982D02*
X49024295Y-40539649D01*
X48224295Y-39706316D02*
X48224295Y-39639649D01*
X48224295Y-39639649D02*
X48262390Y-39572982D01*
X48262390Y-39572982D02*
X48300485Y-39539649D01*
X48300485Y-39539649D02*
X48376676Y-39506316D01*
X48376676Y-39506316D02*
X48529057Y-39472982D01*
X48529057Y-39472982D02*
X48719533Y-39472982D01*
X48719533Y-39472982D02*
X48871914Y-39506316D01*
X48871914Y-39506316D02*
X48948104Y-39539649D01*
X48948104Y-39539649D02*
X48986200Y-39572982D01*
X48986200Y-39572982D02*
X49024295Y-39639649D01*
X49024295Y-39639649D02*
X49024295Y-39706316D01*
X49024295Y-39706316D02*
X48986200Y-39772982D01*
X48986200Y-39772982D02*
X48948104Y-39806316D01*
X48948104Y-39806316D02*
X48871914Y-39839649D01*
X48871914Y-39839649D02*
X48719533Y-39872982D01*
X48719533Y-39872982D02*
X48529057Y-39872982D01*
X48529057Y-39872982D02*
X48376676Y-39839649D01*
X48376676Y-39839649D02*
X48300485Y-39806316D01*
X48300485Y-39806316D02*
X48262390Y-39772982D01*
X48262390Y-39772982D02*
X48224295Y-39706316D01*
X48224295Y-39039649D02*
X48224295Y-38972982D01*
X48224295Y-38972982D02*
X48262390Y-38906315D01*
X48262390Y-38906315D02*
X48300485Y-38872982D01*
X48300485Y-38872982D02*
X48376676Y-38839649D01*
X48376676Y-38839649D02*
X48529057Y-38806315D01*
X48529057Y-38806315D02*
X48719533Y-38806315D01*
X48719533Y-38806315D02*
X48871914Y-38839649D01*
X48871914Y-38839649D02*
X48948104Y-38872982D01*
X48948104Y-38872982D02*
X48986200Y-38906315D01*
X48986200Y-38906315D02*
X49024295Y-38972982D01*
X49024295Y-38972982D02*
X49024295Y-39039649D01*
X49024295Y-39039649D02*
X48986200Y-39106315D01*
X48986200Y-39106315D02*
X48948104Y-39139649D01*
X48948104Y-39139649D02*
X48871914Y-39172982D01*
X48871914Y-39172982D02*
X48719533Y-39206315D01*
X48719533Y-39206315D02*
X48529057Y-39206315D01*
X48529057Y-39206315D02*
X48376676Y-39172982D01*
X48376676Y-39172982D02*
X48300485Y-39139649D01*
X48300485Y-39139649D02*
X48262390Y-39106315D01*
X48262390Y-39106315D02*
X48224295Y-39039649D01*
X49024295Y-38139648D02*
X49024295Y-38539648D01*
X49024295Y-38339648D02*
X48224295Y-38339648D01*
X48224295Y-38339648D02*
X48338580Y-38406315D01*
X48338580Y-38406315D02*
X48414771Y-38472982D01*
X48414771Y-38472982D02*
X48452866Y-38539648D01*
X48490961Y-37539648D02*
X49024295Y-37539648D01*
X48186200Y-37706315D02*
X48757628Y-37872981D01*
X48757628Y-37872981D02*
X48757628Y-37439648D01*
X48795723Y-37206314D02*
X48795723Y-36872981D01*
X49024295Y-37272981D02*
X48224295Y-37039648D01*
X48224295Y-37039648D02*
X49024295Y-36806314D01*
D11*
X51370646Y-32496800D02*
X51827789Y-32496800D01*
X51599217Y-32725371D02*
X51599217Y-32268228D01*
X46452503Y-33166371D02*
X46623931Y-33223514D01*
X46623931Y-33223514D02*
X46681074Y-33280657D01*
X46681074Y-33280657D02*
X46738217Y-33394942D01*
X46738217Y-33394942D02*
X46738217Y-33566371D01*
X46738217Y-33566371D02*
X46681074Y-33680657D01*
X46681074Y-33680657D02*
X46623931Y-33737800D01*
X46623931Y-33737800D02*
X46509646Y-33794942D01*
X46509646Y-33794942D02*
X46052503Y-33794942D01*
X46052503Y-33794942D02*
X46052503Y-32594942D01*
X46052503Y-32594942D02*
X46452503Y-32594942D01*
X46452503Y-32594942D02*
X46566789Y-32652085D01*
X46566789Y-32652085D02*
X46623931Y-32709228D01*
X46623931Y-32709228D02*
X46681074Y-32823514D01*
X46681074Y-32823514D02*
X46681074Y-32937800D01*
X46681074Y-32937800D02*
X46623931Y-33052085D01*
X46623931Y-33052085D02*
X46566789Y-33109228D01*
X46566789Y-33109228D02*
X46452503Y-33166371D01*
X46452503Y-33166371D02*
X46052503Y-33166371D01*
X47252503Y-32594942D02*
X47252503Y-33566371D01*
X47252503Y-33566371D02*
X47309646Y-33680657D01*
X47309646Y-33680657D02*
X47366789Y-33737800D01*
X47366789Y-33737800D02*
X47481074Y-33794942D01*
X47481074Y-33794942D02*
X47709646Y-33794942D01*
X47709646Y-33794942D02*
X47823931Y-33737800D01*
X47823931Y-33737800D02*
X47881074Y-33680657D01*
X47881074Y-33680657D02*
X47938217Y-33566371D01*
X47938217Y-33566371D02*
X47938217Y-32594942D01*
X48909646Y-33166371D02*
X48509646Y-33166371D01*
X48509646Y-33794942D02*
X48509646Y-32594942D01*
X48509646Y-32594942D02*
X49081074Y-32594942D01*
X43058503Y-40002514D02*
X43629931Y-40002514D01*
X43172789Y-40173942D02*
X43515646Y-40173942D01*
X43344217Y-39745371D02*
X43344217Y-40002514D01*
X43401360Y-40345371D02*
X43287074Y-40345371D01*
X47605466Y-40628115D02*
X47605466Y-39866211D01*
X47891180Y-38818592D02*
X47938800Y-38866211D01*
X47938800Y-38866211D02*
X47986419Y-39009068D01*
X47986419Y-39009068D02*
X47986419Y-39104306D01*
X47986419Y-39104306D02*
X47938800Y-39247163D01*
X47938800Y-39247163D02*
X47843561Y-39342401D01*
X47843561Y-39342401D02*
X47748323Y-39390020D01*
X47748323Y-39390020D02*
X47557847Y-39437639D01*
X47557847Y-39437639D02*
X47414990Y-39437639D01*
X47414990Y-39437639D02*
X47224514Y-39390020D01*
X47224514Y-39390020D02*
X47129276Y-39342401D01*
X47129276Y-39342401D02*
X47034038Y-39247163D01*
X47034038Y-39247163D02*
X46986419Y-39104306D01*
X46986419Y-39104306D02*
X46986419Y-39009068D01*
X46986419Y-39009068D02*
X47034038Y-38866211D01*
X47034038Y-38866211D02*
X47081657Y-38818592D01*
X46986419Y-38532877D02*
X46986419Y-37961449D01*
X47986419Y-38247163D02*
X46986419Y-38247163D01*
X47986419Y-37104306D02*
X47986419Y-37675734D01*
X47986419Y-37390020D02*
X46986419Y-37390020D01*
X46986419Y-37390020D02*
X47129276Y-37485258D01*
X47129276Y-37485258D02*
X47224514Y-37580496D01*
X47224514Y-37580496D02*
X47272133Y-37675734D01*
X47081657Y-36723353D02*
X47034038Y-36675734D01*
X47034038Y-36675734D02*
X46986419Y-36580496D01*
X46986419Y-36580496D02*
X46986419Y-36342401D01*
X46986419Y-36342401D02*
X47034038Y-36247163D01*
X47034038Y-36247163D02*
X47081657Y-36199544D01*
X47081657Y-36199544D02*
X47176895Y-36151925D01*
X47176895Y-36151925D02*
X47272133Y-36151925D01*
X47272133Y-36151925D02*
X47414990Y-36199544D01*
X47414990Y-36199544D02*
X47986419Y-36770972D01*
X47986419Y-36770972D02*
X47986419Y-36151925D01*
X46986419Y-35247163D02*
X46986419Y-35723353D01*
X46986419Y-35723353D02*
X47462609Y-35770972D01*
X47462609Y-35770972D02*
X47414990Y-35723353D01*
X47414990Y-35723353D02*
X47367371Y-35628115D01*
X47367371Y-35628115D02*
X47367371Y-35390020D01*
X47367371Y-35390020D02*
X47414990Y-35294782D01*
X47414990Y-35294782D02*
X47462609Y-35247163D01*
X47462609Y-35247163D02*
X47557847Y-35199544D01*
X47557847Y-35199544D02*
X47795942Y-35199544D01*
X47795942Y-35199544D02*
X47891180Y-35247163D01*
X47891180Y-35247163D02*
X47938800Y-35294782D01*
X47938800Y-35294782D02*
X47986419Y-35390020D01*
X47986419Y-35390020D02*
X47986419Y-35628115D01*
X47986419Y-35628115D02*
X47938800Y-35723353D01*
X47938800Y-35723353D02*
X47891180Y-35770972D01*
X57126190Y-43367847D02*
X57240476Y-43405942D01*
X57240476Y-43405942D02*
X57278571Y-43444038D01*
X57278571Y-43444038D02*
X57316667Y-43520228D01*
X57316667Y-43520228D02*
X57316667Y-43634514D01*
X57316667Y-43634514D02*
X57278571Y-43710704D01*
X57278571Y-43710704D02*
X57240476Y-43748800D01*
X57240476Y-43748800D02*
X57164286Y-43786895D01*
X57164286Y-43786895D02*
X56859524Y-43786895D01*
X56859524Y-43786895D02*
X56859524Y-42986895D01*
X56859524Y-42986895D02*
X57126190Y-42986895D01*
X57126190Y-42986895D02*
X57202381Y-43024990D01*
X57202381Y-43024990D02*
X57240476Y-43063085D01*
X57240476Y-43063085D02*
X57278571Y-43139276D01*
X57278571Y-43139276D02*
X57278571Y-43215466D01*
X57278571Y-43215466D02*
X57240476Y-43291657D01*
X57240476Y-43291657D02*
X57202381Y-43329752D01*
X57202381Y-43329752D02*
X57126190Y-43367847D01*
X57126190Y-43367847D02*
X56859524Y-43367847D01*
X58078571Y-43786895D02*
X57621428Y-43786895D01*
X57850000Y-43786895D02*
X57850000Y-42986895D01*
X57850000Y-42986895D02*
X57773809Y-43101180D01*
X57773809Y-43101180D02*
X57697619Y-43177371D01*
X57697619Y-43177371D02*
X57621428Y-43215466D01*
D12*
%TO.C,J2*%
X62620000Y-49470000D02*
X62620000Y-31580000D01*
X65380000Y-31580000D02*
X62620000Y-31580000D01*
X65380000Y-49470000D02*
X62620000Y-49470000D01*
X65380000Y-49470000D02*
X65380000Y-31580000D01*
X65380000Y-50740000D02*
X65380000Y-52120000D01*
X65380000Y-52120000D02*
X64000000Y-52120000D01*
%TO.C,Buffer1*%
D11*
X45539000Y-45222000D02*
X49439000Y-45222000D01*
X49439000Y-53972000D01*
X45539000Y-53972000D01*
X45539000Y-45222000D01*
D12*
%TO.C,J1*%
X33870000Y-50280000D02*
X33870000Y-32390000D01*
X36630000Y-32390000D02*
X33870000Y-32390000D01*
X36630000Y-50280000D02*
X33870000Y-50280000D01*
X36630000Y-50280000D02*
X36630000Y-32390000D01*
X36630000Y-51550000D02*
X36630000Y-52930000D01*
X36630000Y-52930000D02*
X35250000Y-52930000D01*
%TO.C,Buffer2*%
D11*
X45574000Y-32042000D02*
X49474000Y-32042000D01*
X49474000Y-40792000D01*
X45574000Y-40792000D01*
X45574000Y-32042000D01*
%TO.C,B1*%
X55672000Y-43422000D02*
X55672000Y-46724000D01*
X55672000Y-46724000D02*
X55672000Y-46978000D01*
X55672000Y-46978000D02*
X59228000Y-46978000D01*
X56434000Y-43422000D02*
X55672000Y-43422000D01*
X59228000Y-43422000D02*
X58466000Y-43422000D01*
X59228000Y-46978000D02*
X59228000Y-43422000D01*
%TD*%
M02*
