%TF.GenerationSoftware,KiCad,Pcbnew,9.0.3*%
%TF.CreationDate,2025-08-21T17:44:14+02:00*%
%TF.ProjectId,Tri-State-Buffer,5472692d-5374-4617-9465-2d4275666665,rev?*%
%TF.SameCoordinates,Original*%
%TF.FileFunction,Soldermask,Top*%
%TF.FilePolarity,Negative*%
%FSLAX46Y46*%
G04 Gerber Fmt 4.6, Leading zero omitted, Abs format (unit mm)*
G04 Created by KiCad (PCBNEW 9.0.3) date 2025-08-21 17:44:14*
%MOMM*%
%LPD*%
G01*
G04 APERTURE LIST*
%ADD10C,2.100000*%
%ADD11R,1.700000X1.700000*%
%ADD12C,1.700000*%
%ADD13C,2.300000*%
%ADD14R,1.800000X0.700000*%
%ADD15C,2.000000*%
G04 APERTURE END LIST*
D10*
%TO.C,H3*%
X59600000Y-52500000D03*
%TD*%
%TO.C,H2*%
X59200000Y-38300000D03*
%TD*%
%TO.C,H1*%
X39750000Y-42600000D03*
%TD*%
D11*
%TO.C,J2*%
X64000000Y-50740000D03*
D12*
X64000000Y-48200000D03*
X64000000Y-45660000D03*
X64000000Y-43120000D03*
X64000000Y-40580000D03*
X64000000Y-38040000D03*
X64000000Y-35500000D03*
X64000000Y-32960000D03*
%TD*%
D13*
%TO.C,U1*%
X54750000Y-33300000D03*
X59750000Y-33300000D03*
%TD*%
D14*
%TO.C,Buffer1*%
X44650000Y-45730000D03*
X44650000Y-47000000D03*
X44650000Y-48270000D03*
X44650000Y-49540000D03*
X44650000Y-50810000D03*
X44650000Y-52080000D03*
X44650000Y-53350000D03*
X50365000Y-53350000D03*
X50365000Y-52080000D03*
X50365000Y-50810000D03*
X50365000Y-49540000D03*
X50365000Y-48270000D03*
X50365000Y-47000000D03*
X50365000Y-45730000D03*
%TD*%
D11*
%TO.C,J1*%
X35250000Y-51550000D03*
D12*
X35250000Y-49010000D03*
X35250000Y-46470000D03*
X35250000Y-43930000D03*
X35250000Y-41390000D03*
X35250000Y-38850000D03*
X35250000Y-36310000D03*
X35250000Y-33770000D03*
%TD*%
D14*
%TO.C,Buffer2*%
X44685000Y-32550000D03*
X44685000Y-33820000D03*
X44685000Y-35090000D03*
X44685000Y-36360000D03*
X44685000Y-37630000D03*
X44685000Y-38900000D03*
X44685000Y-40170000D03*
X50400000Y-40170000D03*
X50400000Y-38900000D03*
X50400000Y-37630000D03*
X50400000Y-36360000D03*
X50400000Y-35090000D03*
X50400000Y-33820000D03*
X50400000Y-32550000D03*
%TD*%
D15*
%TO.C,B1*%
X57450000Y-45200000D03*
%TD*%
M02*
