%TF.GenerationSoftware,KiCad,Pcbnew,9.0.3*%
%TF.CreationDate,2025-08-21T17:44:14+02:00*%
%TF.ProjectId,Tri-State-Buffer,5472692d-5374-4617-9465-2d4275666665,rev?*%
%TF.SameCoordinates,Original*%
%TF.FileFunction,Copper,L1,Top*%
%TF.FilePolarity,Positive*%
%FSLAX46Y46*%
G04 Gerber Fmt 4.6, Leading zero omitted, Abs format (unit mm)*
G04 Created by KiCad (PCBNEW 9.0.3) date 2025-08-21 17:44:14*
%MOMM*%
%LPD*%
G01*
G04 APERTURE LIST*
%TA.AperFunction,ComponentPad*%
%ADD10R,1.700000X1.700000*%
%TD*%
%TA.AperFunction,ComponentPad*%
%ADD11C,1.700000*%
%TD*%
%TA.AperFunction,ComponentPad*%
%ADD12C,2.300000*%
%TD*%
%TA.AperFunction,SMDPad,CuDef*%
%ADD13R,1.800000X0.700000*%
%TD*%
%TA.AperFunction,ComponentPad*%
%ADD14C,2.000000*%
%TD*%
%TA.AperFunction,ViaPad*%
%ADD15C,0.600000*%
%TD*%
%TA.AperFunction,Conductor*%
%ADD16C,0.200000*%
%TD*%
G04 APERTURE END LIST*
D10*
%TO.P,J2,1,Pin_1*%
%TO.N,Q1*%
X64000000Y-50740000D03*
D11*
%TO.P,J2,2,Pin_2*%
%TO.N,Q2*%
X64000000Y-48200000D03*
%TO.P,J2,3,Pin_3*%
%TO.N,Q3*%
X64000000Y-45660000D03*
%TO.P,J2,4,Pin_4*%
%TO.N,Q4*%
X64000000Y-43120000D03*
%TO.P,J2,5,Pin_5*%
%TO.N,Q5*%
X64000000Y-40580000D03*
%TO.P,J2,6,Pin_6*%
%TO.N,Q6*%
X64000000Y-38040000D03*
%TO.P,J2,7,Pin_7*%
%TO.N,Q7*%
X64000000Y-35500000D03*
%TO.P,J2,8,Pin_8*%
%TO.N,Q8*%
X64000000Y-32960000D03*
%TD*%
D12*
%TO.P,U1,1,Vcc*%
%TO.N,VCC*%
X54750000Y-33300000D03*
%TO.P,U1,2,GND*%
%TO.N,GND*%
X59750000Y-33300000D03*
%TD*%
D13*
%TO.P,Buffer1,1,!OE1*%
%TO.N,!OE*%
X44650000Y-45730000D03*
%TO.P,Buffer1,2,A1*%
%TO.N,A1*%
X44650000Y-47000000D03*
%TO.P,Buffer1,3,Y1*%
%TO.N,Q1*%
X44650000Y-48270000D03*
%TO.P,Buffer1,4,!OE2*%
%TO.N,!OE*%
X44650000Y-49540000D03*
%TO.P,Buffer1,5,A2*%
%TO.N,A2*%
X44650000Y-50810000D03*
%TO.P,Buffer1,6,Y2*%
%TO.N,Q2*%
X44650000Y-52080000D03*
%TO.P,Buffer1,7,GND*%
%TO.N,GND*%
X44650000Y-53350000D03*
%TO.P,Buffer1,8,Y3*%
%TO.N,Q3*%
X50365000Y-53350000D03*
%TO.P,Buffer1,9,A3*%
%TO.N,A3*%
X50365000Y-52080000D03*
%TO.P,Buffer1,10,!OE3*%
%TO.N,!OE*%
X50365000Y-50810000D03*
%TO.P,Buffer1,11,Y4*%
%TO.N,Q4*%
X50365000Y-49540000D03*
%TO.P,Buffer1,12,A4*%
%TO.N,A4*%
X50365000Y-48270000D03*
%TO.P,Buffer1,13,!OE4*%
%TO.N,!OE*%
X50365000Y-47000000D03*
%TO.P,Buffer1,14,Vcc*%
%TO.N,VCC*%
X50365000Y-45730000D03*
%TD*%
D10*
%TO.P,J1,1,Pin_1*%
%TO.N,A1*%
X35250000Y-51550000D03*
D11*
%TO.P,J1,2,Pin_2*%
%TO.N,A2*%
X35250000Y-49010000D03*
%TO.P,J1,3,Pin_3*%
%TO.N,A3*%
X35250000Y-46470000D03*
%TO.P,J1,4,Pin_4*%
%TO.N,A4*%
X35250000Y-43930000D03*
%TO.P,J1,5,Pin_5*%
%TO.N,A5*%
X35250000Y-41390000D03*
%TO.P,J1,6,Pin_6*%
%TO.N,A6*%
X35250000Y-38850000D03*
%TO.P,J1,7,Pin_7*%
%TO.N,A7*%
X35250000Y-36310000D03*
%TO.P,J1,8,Pin_8*%
%TO.N,A8*%
X35250000Y-33770000D03*
%TD*%
D13*
%TO.P,Buffer2,1,!OE1*%
%TO.N,!OE*%
X44685000Y-32550000D03*
%TO.P,Buffer2,2,A1*%
%TO.N,A5*%
X44685000Y-33820000D03*
%TO.P,Buffer2,3,Y1*%
%TO.N,Q5*%
X44685000Y-35090000D03*
%TO.P,Buffer2,4,!OE2*%
%TO.N,!OE*%
X44685000Y-36360000D03*
%TO.P,Buffer2,5,A2*%
%TO.N,A6*%
X44685000Y-37630000D03*
%TO.P,Buffer2,6,Y2*%
%TO.N,Q6*%
X44685000Y-38900000D03*
%TO.P,Buffer2,7,GND*%
%TO.N,GND*%
X44685000Y-40170000D03*
%TO.P,Buffer2,8,Y3*%
%TO.N,Q7*%
X50400000Y-40170000D03*
%TO.P,Buffer2,9,A3*%
%TO.N,A7*%
X50400000Y-38900000D03*
%TO.P,Buffer2,10,!OE3*%
%TO.N,!OE*%
X50400000Y-37630000D03*
%TO.P,Buffer2,11,Y4*%
%TO.N,Q8*%
X50400000Y-36360000D03*
%TO.P,Buffer2,12,A4*%
%TO.N,A8*%
X50400000Y-35090000D03*
%TO.P,Buffer2,13,!OE4*%
%TO.N,!OE*%
X50400000Y-33820000D03*
%TO.P,Buffer2,14,Vcc*%
%TO.N,VCC*%
X50400000Y-32550000D03*
%TD*%
D14*
%TO.P,B1,1,1*%
%TO.N,!OE*%
X57450000Y-45200000D03*
%TD*%
D15*
%TO.N,!OE*%
X42655000Y-47378568D03*
X57450000Y-39150000D03*
X55750000Y-35050000D03*
X42435765Y-36335765D03*
X43099265Y-48899265D03*
X41509473Y-35565000D03*
X52688527Y-50140000D03*
X48952436Y-33343909D03*
X46650000Y-33200000D03*
%TO.N,Q1*%
X52000000Y-48450000D03*
X57200000Y-48400000D03*
X47800000Y-48450000D03*
%TO.N,VCC*%
X52700000Y-45750000D03*
%TO.N,GND*%
X53600000Y-35760000D03*
X49550000Y-42950000D03*
X58400000Y-34650000D03*
X49858472Y-54200002D03*
%TO.N,A4*%
X46600000Y-45450000D03*
%TO.N,A3*%
X46400000Y-48550000D03*
%TO.N,A2*%
X42550000Y-50900000D03*
%TO.N,Q2*%
X47300000Y-51400000D03*
X51850000Y-51400000D03*
X60100000Y-48350000D03*
%TO.N,A7*%
X46075893Y-36805000D03*
%TO.N,A8*%
X44705000Y-31700000D03*
%TO.N,A6*%
X41400000Y-38900000D03*
%TO.N,A5*%
X36650000Y-41390000D03*
%TO.N,Q5*%
X61075735Y-37575735D03*
X47250000Y-36400000D03*
X52050000Y-36960000D03*
%TD*%
D16*
%TO.N,Q5*%
X52050000Y-36960000D02*
X52210000Y-36800000D01*
X52210000Y-36800000D02*
X60300000Y-36800000D01*
X60300000Y-36800000D02*
X61075735Y-37575735D01*
%TO.N,Q7*%
X50400000Y-40170000D02*
X59730000Y-40170000D01*
X59730000Y-40170000D02*
X64000000Y-35900000D01*
X64000000Y-35900000D02*
X64000000Y-35500000D01*
%TO.N,!OE*%
X44100000Y-45730000D02*
X42655000Y-47175000D01*
X55650000Y-47000000D02*
X50365000Y-47000000D01*
X43099265Y-48899265D02*
X43740000Y-49540000D01*
X55930000Y-37630000D02*
X50400000Y-37630000D01*
X55750000Y-35050000D02*
X53400000Y-35050000D01*
X42655000Y-47175000D02*
X42655000Y-47378568D01*
X41509473Y-35565000D02*
X41509473Y-33990527D01*
X57450000Y-39150000D02*
X55930000Y-37630000D01*
X52170000Y-33820000D02*
X50400000Y-33820000D01*
X44650000Y-45730000D02*
X44100000Y-45730000D01*
X46650000Y-33200000D02*
X46000000Y-32550000D01*
X50400000Y-33820000D02*
X49428527Y-33820000D01*
X49428527Y-33820000D02*
X48952436Y-33343909D01*
X47325982Y-44849000D02*
X45531000Y-44849000D01*
X42460000Y-36360000D02*
X44685000Y-36360000D01*
X42950000Y-32550000D02*
X44685000Y-32550000D01*
X49476982Y-47000000D02*
X47325982Y-44849000D01*
X52688527Y-50140000D02*
X52428527Y-50400000D01*
X50775000Y-50400000D02*
X50365000Y-50810000D01*
X53400000Y-35050000D02*
X52170000Y-33820000D01*
X45531000Y-44849000D02*
X44650000Y-45730000D01*
X52428527Y-50400000D02*
X50775000Y-50400000D01*
X43740000Y-49540000D02*
X44650000Y-49540000D01*
X46000000Y-32550000D02*
X44685000Y-32550000D01*
X42435765Y-36335765D02*
X42460000Y-36360000D01*
X57450000Y-45200000D02*
X55650000Y-47000000D01*
X41509473Y-33990527D02*
X42950000Y-32550000D01*
X50365000Y-47000000D02*
X49476982Y-47000000D01*
%TO.N,Q4*%
X57580000Y-49540000D02*
X64000000Y-43120000D01*
X50365000Y-49540000D02*
X57580000Y-49540000D01*
%TO.N,Q1*%
X44971000Y-47949000D02*
X47299000Y-47949000D01*
X52000000Y-48450000D02*
X57150000Y-48450000D01*
X44650000Y-48270000D02*
X44971000Y-47949000D01*
X47299000Y-47949000D02*
X47800000Y-48450000D01*
X57150000Y-48450000D02*
X57200000Y-48400000D01*
%TO.N,VCC*%
X54750000Y-33300000D02*
X54000000Y-32550000D01*
X52700000Y-45750000D02*
X52680000Y-45730000D01*
X52680000Y-45730000D02*
X50365000Y-45730000D01*
X54000000Y-32550000D02*
X50400000Y-32550000D01*
%TO.N,Q3*%
X50365000Y-53350000D02*
X56310000Y-53350000D01*
X56310000Y-53350000D02*
X64000000Y-45660000D01*
%TO.N,GND*%
X57290000Y-35760000D02*
X53600000Y-35760000D01*
X44650000Y-53350000D02*
X46500000Y-53350000D01*
X47315000Y-42800000D02*
X49400000Y-42800000D01*
X49400000Y-42800000D02*
X49550000Y-42950000D01*
X47350002Y-54200002D02*
X49858472Y-54200002D01*
X46500000Y-53350000D02*
X47350002Y-54200002D01*
X44685000Y-40170000D02*
X47315000Y-42800000D01*
X58400000Y-34650000D02*
X57290000Y-35760000D01*
%TO.N,A1*%
X44150000Y-47000000D02*
X44650000Y-47000000D01*
X35250000Y-51550000D02*
X39600000Y-51550000D01*
X39600000Y-51550000D02*
X44150000Y-47000000D01*
%TO.N,A4*%
X50365000Y-48270000D02*
X49420000Y-48270000D01*
X49420000Y-48270000D02*
X46600000Y-45450000D01*
%TO.N,A3*%
X49815000Y-52080000D02*
X46400000Y-48665000D01*
X50365000Y-52080000D02*
X49815000Y-52080000D01*
X46400000Y-48665000D02*
X46400000Y-48550000D01*
%TO.N,A2*%
X42650000Y-50900000D02*
X42740000Y-50810000D01*
X42740000Y-50810000D02*
X44650000Y-50810000D01*
X42550000Y-50900000D02*
X42650000Y-50900000D01*
%TO.N,Q2*%
X46620000Y-52080000D02*
X47300000Y-51400000D01*
X44650000Y-52080000D02*
X46620000Y-52080000D01*
X57050000Y-51400000D02*
X60100000Y-48350000D01*
X51850000Y-51400000D02*
X57050000Y-51400000D01*
%TO.N,A7*%
X48400000Y-38900000D02*
X50400000Y-38900000D01*
X46305000Y-36805000D02*
X48400000Y-38900000D01*
X46075893Y-36805000D02*
X46305000Y-36805000D01*
%TO.N,A8*%
X50400000Y-35090000D02*
X49850000Y-35090000D01*
X46460000Y-31700000D02*
X44705000Y-31700000D01*
X49850000Y-35090000D02*
X46460000Y-31700000D01*
%TO.N,A6*%
X42670000Y-37630000D02*
X41400000Y-38900000D01*
X44685000Y-37630000D02*
X42670000Y-37630000D01*
%TO.N,A5*%
X36650000Y-41273000D02*
X36650000Y-41390000D01*
X44103000Y-33820000D02*
X36650000Y-41273000D01*
X44685000Y-33820000D02*
X44103000Y-33820000D01*
%TO.N,Q6*%
X46191050Y-41108950D02*
X47232100Y-42150000D01*
X59890000Y-42150000D02*
X64000000Y-38040000D01*
X45235000Y-38900000D02*
X46191050Y-39856050D01*
X44685000Y-38900000D02*
X45235000Y-38900000D01*
X47232100Y-42150000D02*
X59890000Y-42150000D01*
X46191050Y-39856050D02*
X46191050Y-41108950D01*
%TO.N,Q5*%
X44685000Y-35090000D02*
X45940000Y-35090000D01*
X45940000Y-35090000D02*
X47250000Y-36400000D01*
%TO.N,Q8*%
X60600000Y-36360000D02*
X64000000Y-32960000D01*
X50400000Y-36360000D02*
X60600000Y-36360000D01*
%TD*%
%TA.AperFunction,NonConductor*%
G36*
X52984185Y-33153050D02*
G01*
X52993147Y-33151762D01*
X53017187Y-33162740D01*
X53042539Y-33170185D01*
X53048466Y-33177025D01*
X53056703Y-33180787D01*
X53070992Y-33203021D01*
X53088294Y-33222989D01*
X53090581Y-33233503D01*
X53094477Y-33239565D01*
X53099500Y-33274500D01*
X53099500Y-33429902D01*
X53128317Y-33611849D01*
X53119362Y-33681143D01*
X53074366Y-33734595D01*
X53007614Y-33755234D01*
X52940301Y-33736509D01*
X52918163Y-33718928D01*
X52657590Y-33458355D01*
X52657588Y-33458352D01*
X52561417Y-33362181D01*
X52527932Y-33300858D01*
X52532916Y-33231166D01*
X52574788Y-33175233D01*
X52640252Y-33150816D01*
X52649098Y-33150500D01*
X52975500Y-33150500D01*
X52984185Y-33153050D01*
G37*
%TD.AperFunction*%
%TA.AperFunction,NonConductor*%
G36*
X43210023Y-33241724D02*
G01*
X43265957Y-33283596D01*
X43290374Y-33349060D01*
X43289980Y-33371157D01*
X43284500Y-33422127D01*
X43284500Y-33422132D01*
X43284500Y-33737901D01*
X43264815Y-33804940D01*
X43248181Y-33825582D01*
X42321654Y-34752109D01*
X42260331Y-34785594D01*
X42190639Y-34780610D01*
X42134706Y-34738738D01*
X42110289Y-34673274D01*
X42109973Y-34664428D01*
X42109973Y-34290624D01*
X42129658Y-34223585D01*
X42146292Y-34202943D01*
X42611334Y-33737901D01*
X43079011Y-33270223D01*
X43140332Y-33236740D01*
X43210023Y-33241724D01*
G37*
%TD.AperFunction*%
%TA.AperFunction,NonConductor*%
G36*
X51951040Y-34466122D02*
G01*
X51995387Y-34494622D01*
X52425812Y-34925048D01*
X52829376Y-35328612D01*
X52862861Y-35389935D01*
X52857877Y-35459627D01*
X52856257Y-35463744D01*
X52830263Y-35526501D01*
X52830262Y-35526504D01*
X52803769Y-35659692D01*
X52771384Y-35721603D01*
X52710668Y-35756177D01*
X52682152Y-35759500D01*
X51893607Y-35759500D01*
X51826568Y-35739815D01*
X51780813Y-35687011D01*
X51770869Y-35617853D01*
X51777425Y-35592167D01*
X51786820Y-35566977D01*
X51794091Y-35547483D01*
X51800500Y-35487873D01*
X51800499Y-34692128D01*
X51794091Y-34632517D01*
X51791524Y-34625636D01*
X51786541Y-34555946D01*
X51820025Y-34494623D01*
X51881348Y-34461138D01*
X51951040Y-34466122D01*
G37*
%TD.AperFunction*%
%TA.AperFunction,NonConductor*%
G36*
X62555398Y-35341953D02*
G01*
X62568834Y-35342914D01*
X62586560Y-35356184D01*
X62606703Y-35365383D01*
X62613985Y-35376714D01*
X62624767Y-35384786D01*
X62632504Y-35405531D01*
X62644477Y-35424161D01*
X62647628Y-35446079D01*
X62649184Y-35450250D01*
X62649500Y-35459096D01*
X62649500Y-35606287D01*
X62655448Y-35643842D01*
X62678848Y-35791585D01*
X62682754Y-35816243D01*
X62748443Y-36018412D01*
X62803373Y-36126220D01*
X62816269Y-36194887D01*
X62789993Y-36259628D01*
X62780569Y-36270194D01*
X61919638Y-37131125D01*
X61858315Y-37164610D01*
X61788623Y-37159626D01*
X61732690Y-37117754D01*
X61728855Y-37112335D01*
X61697524Y-37065446D01*
X61697521Y-37065442D01*
X61586027Y-36953948D01*
X61586023Y-36953945D01*
X61454920Y-36866344D01*
X61454907Y-36866337D01*
X61309236Y-36805999D01*
X61309230Y-36805997D01*
X61281530Y-36800487D01*
X61219620Y-36768100D01*
X61185048Y-36707383D01*
X61188789Y-36637614D01*
X61218042Y-36591191D01*
X62437819Y-35371415D01*
X62457255Y-35360802D01*
X62473989Y-35346302D01*
X62487320Y-35344385D01*
X62499142Y-35337930D01*
X62521228Y-35339509D01*
X62543147Y-35336358D01*
X62555398Y-35341953D01*
G37*
%TD.AperFunction*%
%TA.AperFunction,NonConductor*%
G36*
X47513707Y-33603192D02*
G01*
X47518525Y-33607760D01*
X48963181Y-35052416D01*
X48996666Y-35113739D01*
X48999500Y-35140097D01*
X48999500Y-35487869D01*
X48999501Y-35487876D01*
X49005909Y-35547484D01*
X49055955Y-35681668D01*
X49060939Y-35751360D01*
X49055955Y-35768332D01*
X49005909Y-35902514D01*
X49005908Y-35902516D01*
X48999501Y-35962116D01*
X48999500Y-35962135D01*
X48999500Y-36757870D01*
X48999501Y-36757876D01*
X49005909Y-36817484D01*
X49055955Y-36951668D01*
X49060939Y-37021360D01*
X49055955Y-37038332D01*
X49005909Y-37172514D01*
X49005908Y-37172516D01*
X48999501Y-37232116D01*
X48999500Y-37232135D01*
X48999500Y-38027870D01*
X48999501Y-38027876D01*
X49005908Y-38087483D01*
X49022575Y-38132167D01*
X49024763Y-38162775D01*
X49029131Y-38193147D01*
X49027233Y-38197302D01*
X49027559Y-38201858D01*
X49012855Y-38228784D01*
X49000106Y-38256703D01*
X48996262Y-38259173D01*
X48994074Y-38263181D01*
X48967146Y-38277884D01*
X48941328Y-38294477D01*
X48935127Y-38295368D01*
X48932751Y-38296666D01*
X48906393Y-38299500D01*
X48700097Y-38299500D01*
X48633058Y-38279815D01*
X48612416Y-38263181D01*
X47633781Y-37284546D01*
X47600296Y-37223223D01*
X47605280Y-37153531D01*
X47647152Y-37097598D01*
X47652539Y-37093784D01*
X47760289Y-37021789D01*
X47871789Y-36910289D01*
X47959394Y-36779179D01*
X48019737Y-36633497D01*
X48050500Y-36478842D01*
X48050500Y-36321158D01*
X48050500Y-36321155D01*
X48050499Y-36321153D01*
X48019737Y-36166503D01*
X48019735Y-36166498D01*
X47959397Y-36020827D01*
X47959390Y-36020814D01*
X47871789Y-35889711D01*
X47871786Y-35889707D01*
X47760292Y-35778213D01*
X47760288Y-35778210D01*
X47629185Y-35690609D01*
X47629172Y-35690602D01*
X47483501Y-35630264D01*
X47483491Y-35630261D01*
X47328151Y-35599362D01*
X47266241Y-35566977D01*
X47264662Y-35565426D01*
X46427590Y-34728355D01*
X46427588Y-34728352D01*
X46308717Y-34609481D01*
X46308709Y-34609475D01*
X46212934Y-34554180D01*
X46212930Y-34554178D01*
X46205873Y-34550104D01*
X46171785Y-34530423D01*
X46125669Y-34518065D01*
X46118176Y-34514965D01*
X46097025Y-34497931D01*
X46073838Y-34483798D01*
X46070215Y-34476340D01*
X46063759Y-34471141D01*
X46055173Y-34445373D01*
X46043310Y-34420950D01*
X46044140Y-34412258D01*
X46041673Y-34404854D01*
X46046748Y-34384941D01*
X46049411Y-34357057D01*
X46079091Y-34277483D01*
X46085500Y-34217873D01*
X46085499Y-34017218D01*
X46105183Y-33950180D01*
X46157987Y-33904425D01*
X46227145Y-33894481D01*
X46267953Y-33907861D01*
X46270825Y-33909396D01*
X46416498Y-33969735D01*
X46416503Y-33969737D01*
X46571153Y-34000499D01*
X46571156Y-34000500D01*
X46571158Y-34000500D01*
X46728844Y-34000500D01*
X46728845Y-34000499D01*
X46883497Y-33969737D01*
X47029179Y-33909394D01*
X47160289Y-33821789D01*
X47271789Y-33710289D01*
X47327742Y-33626550D01*
X47381354Y-33581745D01*
X47450679Y-33573038D01*
X47513707Y-33603192D01*
G37*
%TD.AperFunction*%
%TA.AperFunction,NonConductor*%
G36*
X58014735Y-37404047D02*
G01*
X58027279Y-37402970D01*
X58047623Y-37413704D01*
X58069694Y-37420185D01*
X58077938Y-37429699D01*
X58089074Y-37435575D01*
X58100386Y-37455605D01*
X58115449Y-37472989D01*
X58117240Y-37485450D01*
X58123432Y-37496413D01*
X58122119Y-37519377D01*
X58125393Y-37542147D01*
X58120067Y-37555269D01*
X58119444Y-37566169D01*
X58102974Y-37597385D01*
X58087712Y-37618390D01*
X57994781Y-37800776D01*
X57931522Y-37995465D01*
X57899500Y-38197648D01*
X57899500Y-38284155D01*
X57879815Y-38351194D01*
X57827011Y-38396949D01*
X57757853Y-38406893D01*
X57728048Y-38398716D01*
X57683501Y-38380264D01*
X57683491Y-38380261D01*
X57528151Y-38349362D01*
X57466241Y-38316977D01*
X57464662Y-38315426D01*
X57119444Y-37970208D01*
X56761415Y-37612180D01*
X56727931Y-37550858D01*
X56732915Y-37481167D01*
X56774786Y-37425233D01*
X56840251Y-37400816D01*
X56849097Y-37400500D01*
X58002655Y-37400500D01*
X58014735Y-37404047D01*
G37*
%TD.AperFunction*%
%TA.AperFunction,NonConductor*%
G36*
X55696942Y-38250185D02*
G01*
X55717584Y-38266819D01*
X56615425Y-39164660D01*
X56623895Y-39179994D01*
X56635995Y-39191862D01*
X56647093Y-39221992D01*
X56648649Y-39224809D01*
X56649500Y-39228546D01*
X56649500Y-39228842D01*
X56680263Y-39383497D01*
X56690305Y-39407741D01*
X56692634Y-39417968D01*
X56691100Y-39442788D01*
X56693759Y-39467517D01*
X56688982Y-39477058D01*
X56688325Y-39487705D01*
X56673617Y-39507754D01*
X56662484Y-39529996D01*
X56653307Y-39535440D01*
X56646998Y-39544042D01*
X56623783Y-39552957D01*
X56602395Y-39565648D01*
X56585077Y-39567823D01*
X56581774Y-39569092D01*
X56579210Y-39568560D01*
X56571729Y-39569500D01*
X51893607Y-39569500D01*
X51826568Y-39549815D01*
X51780813Y-39497011D01*
X51770869Y-39427853D01*
X51777425Y-39402167D01*
X51787360Y-39375530D01*
X51794091Y-39357483D01*
X51800500Y-39297873D01*
X51800499Y-38502128D01*
X51794091Y-38442517D01*
X51793378Y-38440606D01*
X51777425Y-38397833D01*
X51772441Y-38328142D01*
X51805926Y-38266819D01*
X51867249Y-38233334D01*
X51893607Y-38230500D01*
X55629903Y-38230500D01*
X55696942Y-38250185D01*
G37*
%TD.AperFunction*%
%TA.AperFunction,NonConductor*%
G36*
X46290701Y-37640383D02*
G01*
X46297180Y-37646415D01*
X47915139Y-39264374D01*
X47915149Y-39264385D01*
X47919479Y-39268715D01*
X47919480Y-39268716D01*
X48031284Y-39380520D01*
X48031286Y-39380521D01*
X48031290Y-39380524D01*
X48139136Y-39442788D01*
X48168216Y-39459577D01*
X48271807Y-39487334D01*
X48320942Y-39500500D01*
X48320943Y-39500500D01*
X48906393Y-39500500D01*
X48973432Y-39520185D01*
X49019187Y-39572989D01*
X49029131Y-39642147D01*
X49022575Y-39667833D01*
X49005908Y-39712517D01*
X48999501Y-39772116D01*
X48999500Y-39772135D01*
X48999500Y-40567870D01*
X48999501Y-40567876D01*
X49005908Y-40627483D01*
X49056202Y-40762328D01*
X49056206Y-40762335D01*
X49142452Y-40877544D01*
X49142455Y-40877547D01*
X49257664Y-40963793D01*
X49257671Y-40963797D01*
X49392517Y-41014091D01*
X49392516Y-41014091D01*
X49399444Y-41014835D01*
X49452127Y-41020500D01*
X51347872Y-41020499D01*
X51407483Y-41014091D01*
X51542331Y-40963796D01*
X51657546Y-40877546D01*
X51689238Y-40835211D01*
X51700485Y-40820188D01*
X51756419Y-40778318D01*
X51799751Y-40770500D01*
X59643331Y-40770500D01*
X59643347Y-40770501D01*
X59650943Y-40770501D01*
X59809054Y-40770501D01*
X59809057Y-40770501D01*
X59961785Y-40729577D01*
X60036765Y-40686287D01*
X60098716Y-40650520D01*
X60210520Y-40538716D01*
X60210520Y-40538714D01*
X60220724Y-40528511D01*
X60220727Y-40528506D01*
X62471053Y-38278181D01*
X62475791Y-38275594D01*
X62478772Y-38271088D01*
X62506137Y-38259024D01*
X62532374Y-38244698D01*
X62537761Y-38245083D01*
X62542705Y-38242904D01*
X62572240Y-38247549D01*
X62602066Y-38249682D01*
X62606391Y-38252920D01*
X62611726Y-38253759D01*
X62634059Y-38273632D01*
X62657999Y-38291554D01*
X62660961Y-38297571D01*
X62663922Y-38300206D01*
X62669156Y-38314216D01*
X62678159Y-38332501D01*
X62680086Y-38339400D01*
X62682754Y-38356243D01*
X62697284Y-38400962D01*
X62697987Y-38403478D01*
X62697559Y-38435922D01*
X62698486Y-38468364D01*
X62697099Y-38470778D01*
X62697066Y-38473342D01*
X62686164Y-38489823D01*
X62666241Y-38524522D01*
X59677584Y-41513181D01*
X59616261Y-41546666D01*
X59589903Y-41549500D01*
X47532197Y-41549500D01*
X47465158Y-41529815D01*
X47444516Y-41513181D01*
X46827869Y-40896534D01*
X46794384Y-40835211D01*
X46791550Y-40808853D01*
X46791550Y-39945109D01*
X46791551Y-39945096D01*
X46791551Y-39776995D01*
X46791551Y-39776993D01*
X46750627Y-39624265D01*
X46719008Y-39569500D01*
X46671570Y-39487334D01*
X46559766Y-39375530D01*
X46559765Y-39375529D01*
X46555435Y-39371199D01*
X46555424Y-39371189D01*
X46121818Y-38937583D01*
X46088333Y-38876260D01*
X46085499Y-38849902D01*
X46085499Y-38502129D01*
X46085498Y-38502123D01*
X46085497Y-38502116D01*
X46079091Y-38442517D01*
X46029042Y-38308330D01*
X46024059Y-38238642D01*
X46029039Y-38221678D01*
X46079091Y-38087483D01*
X46085500Y-38027873D01*
X46085499Y-37734094D01*
X46105183Y-37667057D01*
X46157987Y-37621302D01*
X46227146Y-37611358D01*
X46290701Y-37640383D01*
G37*
%TD.AperFunction*%
%TA.AperFunction,NonConductor*%
G36*
X46208575Y-46151805D02*
G01*
X46218044Y-46157539D01*
X46220814Y-46159390D01*
X46220827Y-46159397D01*
X46366498Y-46219735D01*
X46366503Y-46219737D01*
X46431147Y-46232595D01*
X46521849Y-46250638D01*
X46583760Y-46283023D01*
X46585339Y-46284574D01*
X47437583Y-47136818D01*
X47448194Y-47156251D01*
X47462696Y-47172987D01*
X47464613Y-47186319D01*
X47471068Y-47198141D01*
X47469488Y-47220227D01*
X47472640Y-47242145D01*
X47467044Y-47254397D01*
X47466084Y-47267833D01*
X47452814Y-47285558D01*
X47443616Y-47305701D01*
X47432283Y-47312984D01*
X47424212Y-47323766D01*
X47403467Y-47331503D01*
X47384838Y-47343476D01*
X47362918Y-47346627D01*
X47358748Y-47348183D01*
X47349903Y-47348499D01*
X47219943Y-47348499D01*
X47219939Y-47348499D01*
X47212332Y-47348500D01*
X47212331Y-47348499D01*
X47212331Y-47348500D01*
X46174500Y-47348500D01*
X46107461Y-47328815D01*
X46061706Y-47276011D01*
X46050500Y-47224500D01*
X46050499Y-46602129D01*
X46050498Y-46602123D01*
X46044091Y-46542518D01*
X46044091Y-46542517D01*
X45994042Y-46408330D01*
X45992157Y-46381975D01*
X45986541Y-46356155D01*
X45989378Y-46343110D01*
X45989059Y-46338642D01*
X45994040Y-46321675D01*
X46032969Y-46217302D01*
X46074838Y-46161372D01*
X46140302Y-46136954D01*
X46208575Y-46151805D01*
G37*
%TD.AperFunction*%
%TA.AperFunction,NonConductor*%
G36*
X62568834Y-45502914D02*
G01*
X62624767Y-45544786D01*
X62649184Y-45610250D01*
X62649500Y-45619096D01*
X62649500Y-45766287D01*
X62666127Y-45871265D01*
X62682754Y-45976244D01*
X62682754Y-45976247D01*
X62696491Y-46018523D01*
X62698486Y-46088364D01*
X62666241Y-46144522D01*
X60928470Y-47882293D01*
X60867147Y-47915778D01*
X60797455Y-47910794D01*
X60741522Y-47868922D01*
X60737687Y-47863504D01*
X60731971Y-47854949D01*
X60721789Y-47839711D01*
X60721788Y-47839710D01*
X60721786Y-47839707D01*
X60610292Y-47728213D01*
X60610288Y-47728210D01*
X60514560Y-47664246D01*
X60469755Y-47610634D01*
X60461048Y-47541309D01*
X60491203Y-47478281D01*
X60495751Y-47473482D01*
X62437819Y-45531415D01*
X62499142Y-45497930D01*
X62568834Y-45502914D01*
G37*
%TD.AperFunction*%
%TA.AperFunction,NonConductor*%
G36*
X42581615Y-49520132D02*
G01*
X42607170Y-49533211D01*
X42720086Y-49608659D01*
X42720088Y-49608660D01*
X42720092Y-49608662D01*
X42865763Y-49669000D01*
X42865768Y-49669002D01*
X42930412Y-49681860D01*
X43021114Y-49699903D01*
X43037870Y-49708667D01*
X43056350Y-49712688D01*
X43081388Y-49731432D01*
X43083025Y-49732288D01*
X43084604Y-49733839D01*
X43213853Y-49863088D01*
X43247338Y-49924411D01*
X43249462Y-49937515D01*
X43255908Y-49997483D01*
X43272575Y-50042167D01*
X43277559Y-50111858D01*
X43244074Y-50173181D01*
X43182751Y-50206666D01*
X43156393Y-50209500D01*
X42995071Y-50209500D01*
X42935361Y-50191967D01*
X42934553Y-50193479D01*
X42929181Y-50190607D01*
X42929179Y-50190606D01*
X42929176Y-50190605D01*
X42929171Y-50190602D01*
X42783501Y-50130264D01*
X42783489Y-50130261D01*
X42628845Y-50099500D01*
X42628842Y-50099500D01*
X42471158Y-50099500D01*
X42471155Y-50099500D01*
X42316510Y-50130261D01*
X42316498Y-50130264D01*
X42170827Y-50190602D01*
X42170816Y-50190608D01*
X42126104Y-50220484D01*
X42059426Y-50241361D01*
X41992046Y-50222876D01*
X41945357Y-50170897D01*
X41934181Y-50101926D01*
X41962067Y-50037863D01*
X41969522Y-50029711D01*
X42450602Y-49548631D01*
X42511923Y-49515148D01*
X42581615Y-49520132D01*
G37*
%TD.AperFunction*%
%TA.AperFunction,NonConductor*%
G36*
X48756123Y-48472530D02*
G01*
X48802551Y-48501786D01*
X48933069Y-48632304D01*
X48938786Y-48642774D01*
X48947996Y-48650360D01*
X48963455Y-48682089D01*
X48967325Y-48694147D01*
X48970909Y-48727483D01*
X49021204Y-48862331D01*
X49021386Y-48862574D01*
X49022840Y-48867104D01*
X49023644Y-48899269D01*
X49025939Y-48931360D01*
X49024511Y-48933973D01*
X49024586Y-48936951D01*
X49020955Y-48948332D01*
X48970909Y-49082514D01*
X48970908Y-49082516D01*
X48964501Y-49142116D01*
X48964500Y-49142135D01*
X48964500Y-49937870D01*
X48964501Y-49937876D01*
X48970908Y-49997483D01*
X49003216Y-50084104D01*
X49008200Y-50153796D01*
X48974715Y-50215119D01*
X48913391Y-50248603D01*
X48843700Y-50243618D01*
X48799353Y-50215118D01*
X48002422Y-49418187D01*
X47968937Y-49356864D01*
X47973921Y-49287172D01*
X48015793Y-49231239D01*
X48042648Y-49215946D01*
X48097262Y-49193325D01*
X48179173Y-49159397D01*
X48179176Y-49159395D01*
X48179179Y-49159394D01*
X48310289Y-49071789D01*
X48421789Y-48960289D01*
X48509394Y-48829179D01*
X48569737Y-48683497D01*
X48593253Y-48565276D01*
X48625638Y-48503365D01*
X48686353Y-48468791D01*
X48756123Y-48472530D01*
G37*
%TD.AperFunction*%
%TA.AperFunction,NonConductor*%
G36*
X57227942Y-50160185D02*
G01*
X57273697Y-50212989D01*
X57283641Y-50282147D01*
X57254616Y-50345703D01*
X57248584Y-50352181D01*
X56837584Y-50763181D01*
X56776261Y-50796666D01*
X56749903Y-50799500D01*
X53442605Y-50799500D01*
X53375566Y-50779815D01*
X53329811Y-50727011D01*
X53319867Y-50657853D01*
X53339503Y-50606609D01*
X53397917Y-50519185D01*
X53397917Y-50519184D01*
X53397921Y-50519179D01*
X53458264Y-50373497D01*
X53468998Y-50319533D01*
X53484758Y-50240308D01*
X53517143Y-50178397D01*
X53577859Y-50143823D01*
X53606375Y-50140500D01*
X57160903Y-50140500D01*
X57227942Y-50160185D01*
G37*
%TD.AperFunction*%
%TA.AperFunction,NonConductor*%
G36*
X41918115Y-36956632D02*
G01*
X41943670Y-36969711D01*
X42056586Y-37045159D01*
X42056588Y-37045160D01*
X42056592Y-37045162D01*
X42131926Y-37076366D01*
X42186330Y-37120207D01*
X42208395Y-37186501D01*
X42191116Y-37254200D01*
X42172155Y-37278608D01*
X41385339Y-38065425D01*
X41324016Y-38098910D01*
X41321850Y-38099361D01*
X41166508Y-38130261D01*
X41166498Y-38130264D01*
X41020827Y-38190602D01*
X41020814Y-38190609D01*
X40889711Y-38278210D01*
X40889707Y-38278213D01*
X40778213Y-38389707D01*
X40778210Y-38389711D01*
X40690609Y-38520814D01*
X40690602Y-38520827D01*
X40630264Y-38666498D01*
X40630261Y-38666510D01*
X40599500Y-38821153D01*
X40599500Y-38978846D01*
X40630261Y-39133489D01*
X40630264Y-39133501D01*
X40690602Y-39279172D01*
X40690609Y-39279185D01*
X40778210Y-39410288D01*
X40778213Y-39410292D01*
X40889707Y-39521786D01*
X40889711Y-39521789D01*
X41020814Y-39609390D01*
X41020827Y-39609397D01*
X41099894Y-39642147D01*
X41166503Y-39669737D01*
X41319690Y-39700208D01*
X41321153Y-39700499D01*
X41321156Y-39700500D01*
X41321158Y-39700500D01*
X41478844Y-39700500D01*
X41478845Y-39700499D01*
X41633497Y-39669737D01*
X41779179Y-39609394D01*
X41910289Y-39521789D01*
X42021789Y-39410289D01*
X42109394Y-39279179D01*
X42169737Y-39133497D01*
X42189113Y-39036085D01*
X42200638Y-38978150D01*
X42233023Y-38916239D01*
X42234518Y-38914716D01*
X42882416Y-38266819D01*
X42909343Y-38252115D01*
X42935162Y-38235523D01*
X42941362Y-38234631D01*
X42943739Y-38233334D01*
X42970097Y-38230500D01*
X43191393Y-38230500D01*
X43258432Y-38250185D01*
X43304187Y-38302989D01*
X43314131Y-38372147D01*
X43307575Y-38397833D01*
X43290908Y-38442517D01*
X43285823Y-38489823D01*
X43284501Y-38502123D01*
X43284500Y-38502135D01*
X43284500Y-39297870D01*
X43284501Y-39297876D01*
X43290909Y-39357484D01*
X43340955Y-39491668D01*
X43345939Y-39561360D01*
X43340955Y-39578332D01*
X43290909Y-39712514D01*
X43290908Y-39712516D01*
X43284501Y-39772116D01*
X43284500Y-39772135D01*
X43284500Y-40567870D01*
X43284501Y-40567876D01*
X43290908Y-40627483D01*
X43341202Y-40762328D01*
X43341206Y-40762335D01*
X43427452Y-40877544D01*
X43427455Y-40877547D01*
X43542664Y-40963793D01*
X43542671Y-40963797D01*
X43677517Y-41014091D01*
X43677516Y-41014091D01*
X43684444Y-41014835D01*
X43737127Y-41020500D01*
X44634902Y-41020499D01*
X44701941Y-41040183D01*
X44722582Y-41056817D01*
X46946284Y-43280520D01*
X46946286Y-43280521D01*
X46946290Y-43280524D01*
X47030575Y-43329185D01*
X47083216Y-43359577D01*
X47235943Y-43400501D01*
X47235945Y-43400501D01*
X47401654Y-43400501D01*
X47401670Y-43400500D01*
X48821982Y-43400500D01*
X48889021Y-43420185D01*
X48925086Y-43455612D01*
X48928211Y-43460290D01*
X49039707Y-43571786D01*
X49039711Y-43571789D01*
X49170814Y-43659390D01*
X49170827Y-43659397D01*
X49298517Y-43712287D01*
X49316503Y-43719737D01*
X49471153Y-43750499D01*
X49471156Y-43750500D01*
X49471158Y-43750500D01*
X49628844Y-43750500D01*
X49628845Y-43750499D01*
X49783497Y-43719737D01*
X49929179Y-43659394D01*
X50060289Y-43571789D01*
X50171789Y-43460289D01*
X50259394Y-43329179D01*
X50319737Y-43183497D01*
X50350500Y-43028842D01*
X50350500Y-42874500D01*
X50370185Y-42807461D01*
X50422989Y-42761706D01*
X50474500Y-42750500D01*
X59803331Y-42750500D01*
X59803347Y-42750501D01*
X59810943Y-42750501D01*
X59969054Y-42750501D01*
X59969057Y-42750501D01*
X60121785Y-42709577D01*
X60175710Y-42678443D01*
X60258716Y-42630520D01*
X60370520Y-42518716D01*
X60370520Y-42518714D01*
X60380724Y-42508511D01*
X60380727Y-42508506D01*
X62437820Y-40451413D01*
X62499142Y-40417930D01*
X62568834Y-40422914D01*
X62624767Y-40464786D01*
X62649184Y-40530250D01*
X62649500Y-40539096D01*
X62649500Y-40686284D01*
X62649499Y-40686284D01*
X62679793Y-40877548D01*
X62682754Y-40896243D01*
X62734928Y-41056818D01*
X62748444Y-41098414D01*
X62844951Y-41287820D01*
X62969890Y-41459786D01*
X63120213Y-41610109D01*
X63292182Y-41735050D01*
X63300946Y-41739516D01*
X63351742Y-41787491D01*
X63368536Y-41855312D01*
X63345998Y-41921447D01*
X63300946Y-41960484D01*
X63292182Y-41964949D01*
X63120213Y-42089890D01*
X62969890Y-42240213D01*
X62844951Y-42412179D01*
X62748444Y-42601585D01*
X62682753Y-42803760D01*
X62671549Y-42874500D01*
X62649500Y-43013713D01*
X62649500Y-43226287D01*
X62665797Y-43329179D01*
X62682754Y-43436244D01*
X62682754Y-43436247D01*
X62696491Y-43478523D01*
X62698486Y-43548364D01*
X62666241Y-43604522D01*
X58140362Y-48130401D01*
X58079039Y-48163886D01*
X58009347Y-48158902D01*
X57953414Y-48117030D01*
X57938120Y-48090172D01*
X57909397Y-48020826D01*
X57909390Y-48020814D01*
X57821789Y-47889711D01*
X57821786Y-47889707D01*
X57710292Y-47778213D01*
X57710288Y-47778210D01*
X57579185Y-47690609D01*
X57579172Y-47690602D01*
X57433501Y-47630264D01*
X57433489Y-47630261D01*
X57278845Y-47599500D01*
X57278842Y-47599500D01*
X57121158Y-47599500D01*
X57121155Y-47599500D01*
X56966510Y-47630261D01*
X56966498Y-47630264D01*
X56820827Y-47690602D01*
X56820814Y-47690609D01*
X56689711Y-47778210D01*
X56689707Y-47778213D01*
X56654742Y-47813180D01*
X56593420Y-47846666D01*
X56567060Y-47849500D01*
X52579766Y-47849500D01*
X52561628Y-47844174D01*
X52542728Y-47843839D01*
X52514484Y-47830331D01*
X52512727Y-47829815D01*
X52510888Y-47828611D01*
X52509391Y-47827611D01*
X52464579Y-47774004D01*
X52455863Y-47704680D01*
X52486010Y-47641649D01*
X52545449Y-47604922D01*
X52578269Y-47600500D01*
X55563331Y-47600500D01*
X55563347Y-47600501D01*
X55570943Y-47600501D01*
X55729054Y-47600501D01*
X55729057Y-47600501D01*
X55881785Y-47559577D01*
X55931904Y-47530639D01*
X56018716Y-47480520D01*
X56130520Y-47368716D01*
X56130520Y-47368714D01*
X56140728Y-47358507D01*
X56140730Y-47358504D01*
X56846437Y-46652796D01*
X56907758Y-46619313D01*
X56972433Y-46622547D01*
X57098632Y-46663553D01*
X57186110Y-46677408D01*
X57331903Y-46700500D01*
X57331908Y-46700500D01*
X57568097Y-46700500D01*
X57801368Y-46663553D01*
X57834468Y-46652798D01*
X58025992Y-46590568D01*
X58236433Y-46483343D01*
X58427510Y-46344517D01*
X58594517Y-46177510D01*
X58733343Y-45986433D01*
X58840568Y-45775992D01*
X58913553Y-45551368D01*
X58950500Y-45318097D01*
X58950500Y-45081902D01*
X58913553Y-44848631D01*
X58879689Y-44744412D01*
X58840568Y-44624008D01*
X58840566Y-44624005D01*
X58840566Y-44624003D01*
X58733342Y-44413566D01*
X58729620Y-44408443D01*
X58594517Y-44222490D01*
X58427510Y-44055483D01*
X58236433Y-43916657D01*
X58204723Y-43900500D01*
X58025996Y-43809433D01*
X57801368Y-43736446D01*
X57568097Y-43699500D01*
X57568092Y-43699500D01*
X57331908Y-43699500D01*
X57331903Y-43699500D01*
X57098631Y-43736446D01*
X56874003Y-43809433D01*
X56663566Y-43916657D01*
X56554550Y-43995862D01*
X56472490Y-44055483D01*
X56472488Y-44055485D01*
X56472487Y-44055485D01*
X56305485Y-44222487D01*
X56305485Y-44222488D01*
X56305483Y-44222490D01*
X56256852Y-44289425D01*
X56166657Y-44413566D01*
X56059433Y-44624003D01*
X55986446Y-44848631D01*
X55949500Y-45081902D01*
X55949500Y-45318097D01*
X55986447Y-45551369D01*
X55986447Y-45551372D01*
X56027450Y-45677564D01*
X56029445Y-45747405D01*
X55997200Y-45803563D01*
X55437584Y-46363181D01*
X55376261Y-46396666D01*
X55349903Y-46399500D01*
X53460759Y-46399500D01*
X53393720Y-46379815D01*
X53347965Y-46327011D01*
X53338021Y-46257853D01*
X53357657Y-46206609D01*
X53376496Y-46178414D01*
X53409394Y-46129179D01*
X53469737Y-45983497D01*
X53500500Y-45828842D01*
X53500500Y-45671158D01*
X53500500Y-45671155D01*
X53500499Y-45671153D01*
X53490144Y-45619096D01*
X53469737Y-45516503D01*
X53423949Y-45405960D01*
X53409397Y-45370827D01*
X53409390Y-45370814D01*
X53321789Y-45239711D01*
X53321786Y-45239707D01*
X53210292Y-45128213D01*
X53210288Y-45128210D01*
X53079185Y-45040609D01*
X53079172Y-45040602D01*
X52933501Y-44980264D01*
X52933489Y-44980261D01*
X52778845Y-44949500D01*
X52778842Y-44949500D01*
X52621158Y-44949500D01*
X52621155Y-44949500D01*
X52466510Y-44980261D01*
X52466498Y-44980264D01*
X52320827Y-45040602D01*
X52320814Y-45040609D01*
X52219057Y-45108602D01*
X52152379Y-45129480D01*
X52150166Y-45129500D01*
X51764751Y-45129500D01*
X51697712Y-45109815D01*
X51665485Y-45079812D01*
X51622548Y-45022457D01*
X51622546Y-45022454D01*
X51622542Y-45022451D01*
X51507335Y-44936206D01*
X51507328Y-44936202D01*
X51372482Y-44885908D01*
X51372483Y-44885908D01*
X51312883Y-44879501D01*
X51312881Y-44879500D01*
X51312873Y-44879500D01*
X51312864Y-44879500D01*
X49417129Y-44879500D01*
X49417123Y-44879501D01*
X49357516Y-44885908D01*
X49222671Y-44936202D01*
X49222664Y-44936206D01*
X49107455Y-45022452D01*
X49107452Y-45022455D01*
X49021206Y-45137664D01*
X49021202Y-45137671D01*
X48970908Y-45272517D01*
X48964501Y-45332116D01*
X48964500Y-45332135D01*
X48964500Y-45338921D01*
X48944815Y-45405960D01*
X48892011Y-45451715D01*
X48822853Y-45461659D01*
X48759297Y-45432634D01*
X48752819Y-45426602D01*
X47813572Y-44487355D01*
X47813570Y-44487352D01*
X47694699Y-44368481D01*
X47694698Y-44368480D01*
X47607886Y-44318360D01*
X47607886Y-44318359D01*
X47607882Y-44318358D01*
X47557767Y-44289423D01*
X47405039Y-44248499D01*
X47246925Y-44248499D01*
X47239329Y-44248499D01*
X47239313Y-44248500D01*
X45610057Y-44248500D01*
X45451943Y-44248500D01*
X45299215Y-44289423D01*
X45299214Y-44289423D01*
X45299212Y-44289424D01*
X45299209Y-44289425D01*
X45249096Y-44318359D01*
X45249095Y-44318360D01*
X45248756Y-44318556D01*
X45162285Y-44368479D01*
X45162282Y-44368481D01*
X45050478Y-44480286D01*
X44687582Y-44843181D01*
X44626259Y-44876666D01*
X44599901Y-44879500D01*
X43702129Y-44879500D01*
X43702123Y-44879501D01*
X43642516Y-44885908D01*
X43507671Y-44936202D01*
X43507664Y-44936206D01*
X43392455Y-45022452D01*
X43392452Y-45022455D01*
X43306206Y-45137664D01*
X43306202Y-45137671D01*
X43255908Y-45272517D01*
X43249501Y-45332116D01*
X43249500Y-45332135D01*
X43249500Y-45679901D01*
X43229815Y-45746940D01*
X43213181Y-45767582D01*
X42354324Y-46626439D01*
X42314097Y-46653318D01*
X42275829Y-46669169D01*
X42275814Y-46669177D01*
X42144711Y-46756778D01*
X42144707Y-46756781D01*
X42033213Y-46868275D01*
X42033210Y-46868279D01*
X41945609Y-46999382D01*
X41945602Y-46999395D01*
X41885264Y-47145066D01*
X41885261Y-47145078D01*
X41854500Y-47299721D01*
X41854500Y-47457414D01*
X41885261Y-47612057D01*
X41885264Y-47612069D01*
X41945602Y-47757740D01*
X41945609Y-47757753D01*
X42033210Y-47888856D01*
X42033213Y-47888860D01*
X42134877Y-47990524D01*
X42168362Y-48051847D01*
X42163378Y-48121539D01*
X42134877Y-48165886D01*
X39387584Y-50913181D01*
X39326261Y-50946666D01*
X39299903Y-50949500D01*
X36724499Y-50949500D01*
X36657460Y-50929815D01*
X36611705Y-50877011D01*
X36600499Y-50825500D01*
X36600499Y-50652129D01*
X36600498Y-50652123D01*
X36600497Y-50652116D01*
X36594091Y-50592517D01*
X36588896Y-50578589D01*
X36543797Y-50457671D01*
X36543793Y-50457664D01*
X36457547Y-50342455D01*
X36457544Y-50342452D01*
X36342335Y-50256206D01*
X36342328Y-50256202D01*
X36210917Y-50207189D01*
X36154983Y-50165318D01*
X36130566Y-50099853D01*
X36145418Y-50031580D01*
X36166563Y-50003332D01*
X36280104Y-49889792D01*
X36299506Y-49863088D01*
X36393410Y-49733839D01*
X36405051Y-49717816D01*
X36501557Y-49528412D01*
X36567246Y-49326243D01*
X36600500Y-49116287D01*
X36600500Y-48903713D01*
X36567246Y-48693757D01*
X36501557Y-48491588D01*
X36405051Y-48302184D01*
X36405049Y-48302181D01*
X36405048Y-48302179D01*
X36280109Y-48130213D01*
X36129786Y-47979890D01*
X35957820Y-47854951D01*
X35957115Y-47854591D01*
X35949054Y-47850485D01*
X35898259Y-47802512D01*
X35881463Y-47734692D01*
X35903999Y-47668556D01*
X35949054Y-47629515D01*
X35957816Y-47625051D01*
X36047934Y-47559577D01*
X36129786Y-47500109D01*
X36129788Y-47500106D01*
X36129792Y-47500104D01*
X36280104Y-47349792D01*
X36280106Y-47349788D01*
X36280109Y-47349786D01*
X36405048Y-47177820D01*
X36405047Y-47177820D01*
X36405051Y-47177816D01*
X36501557Y-46988412D01*
X36567246Y-46786243D01*
X36600500Y-46576287D01*
X36600500Y-46363713D01*
X36567246Y-46153757D01*
X36501557Y-45951588D01*
X36405051Y-45762184D01*
X36405049Y-45762181D01*
X36405048Y-45762179D01*
X36280109Y-45590213D01*
X36129786Y-45439890D01*
X35957820Y-45314951D01*
X35957115Y-45314591D01*
X35949054Y-45310485D01*
X35898259Y-45262512D01*
X35881463Y-45194692D01*
X35903999Y-45128556D01*
X35949054Y-45089515D01*
X35957816Y-45085051D01*
X36043978Y-45022451D01*
X36129786Y-44960109D01*
X36129788Y-44960106D01*
X36129792Y-44960104D01*
X36280104Y-44809792D01*
X36280106Y-44809788D01*
X36280109Y-44809786D01*
X36405048Y-44637820D01*
X36405047Y-44637820D01*
X36405051Y-44637816D01*
X36501557Y-44448412D01*
X36567246Y-44246243D01*
X36600500Y-44036287D01*
X36600500Y-43823713D01*
X36567246Y-43613757D01*
X36501557Y-43411588D01*
X36405051Y-43222184D01*
X36405049Y-43222181D01*
X36405048Y-43222179D01*
X36280109Y-43050213D01*
X36129786Y-42899890D01*
X35957820Y-42774951D01*
X35957115Y-42774591D01*
X35949054Y-42770485D01*
X35898259Y-42722512D01*
X35881463Y-42654692D01*
X35903999Y-42588556D01*
X35949054Y-42549515D01*
X35957816Y-42545051D01*
X35994067Y-42518713D01*
X36023061Y-42497648D01*
X38449500Y-42497648D01*
X38449500Y-42702351D01*
X38481522Y-42904534D01*
X38544781Y-43099223D01*
X38637715Y-43281613D01*
X38758028Y-43447213D01*
X38902786Y-43591971D01*
X39050790Y-43699500D01*
X39068390Y-43712287D01*
X39184607Y-43771503D01*
X39250776Y-43805218D01*
X39250778Y-43805218D01*
X39250781Y-43805220D01*
X39320337Y-43827820D01*
X39445465Y-43868477D01*
X39546557Y-43884488D01*
X39647648Y-43900500D01*
X39647649Y-43900500D01*
X39852351Y-43900500D01*
X39852352Y-43900500D01*
X40054534Y-43868477D01*
X40249219Y-43805220D01*
X40431610Y-43712287D01*
X40567222Y-43613760D01*
X40597213Y-43591971D01*
X40597215Y-43591968D01*
X40597219Y-43591966D01*
X40741966Y-43447219D01*
X40741968Y-43447215D01*
X40741971Y-43447213D01*
X40827731Y-43329172D01*
X40862287Y-43281610D01*
X40955220Y-43099219D01*
X41018477Y-42904534D01*
X41050500Y-42702352D01*
X41050500Y-42497648D01*
X41018477Y-42295466D01*
X41010135Y-42269793D01*
X40978192Y-42171481D01*
X40955220Y-42100781D01*
X40955218Y-42100778D01*
X40955218Y-42100776D01*
X40909875Y-42011786D01*
X40862287Y-41918390D01*
X40816459Y-41855312D01*
X40741971Y-41752786D01*
X40597213Y-41608028D01*
X40431613Y-41487715D01*
X40431612Y-41487714D01*
X40431610Y-41487713D01*
X40374653Y-41458691D01*
X40249223Y-41394781D01*
X40054534Y-41331522D01*
X39879995Y-41303878D01*
X39852352Y-41299500D01*
X39647648Y-41299500D01*
X39623329Y-41303351D01*
X39445465Y-41331522D01*
X39250776Y-41394781D01*
X39068386Y-41487715D01*
X38902786Y-41608028D01*
X38758028Y-41752786D01*
X38637715Y-41918386D01*
X38544781Y-42100776D01*
X38481522Y-42295465D01*
X38449500Y-42497648D01*
X36023061Y-42497648D01*
X36129786Y-42420109D01*
X36129788Y-42420106D01*
X36129792Y-42420104D01*
X36280104Y-42269792D01*
X36320532Y-42214145D01*
X36375860Y-42171481D01*
X36445042Y-42165414D01*
X36571155Y-42190500D01*
X36571158Y-42190500D01*
X36728844Y-42190500D01*
X36728845Y-42190499D01*
X36883497Y-42159737D01*
X36996166Y-42113067D01*
X37029172Y-42099397D01*
X37029172Y-42099396D01*
X37029179Y-42099394D01*
X37160289Y-42011789D01*
X37271789Y-41900289D01*
X37359394Y-41769179D01*
X37419737Y-41623497D01*
X37450500Y-41468842D01*
X37450500Y-41373096D01*
X37470185Y-41306057D01*
X37486814Y-41285420D01*
X41787102Y-36985131D01*
X41848423Y-36951648D01*
X41918115Y-36956632D01*
G37*
%TD.AperFunction*%
%TA.AperFunction,NonConductor*%
G36*
X46255702Y-49370383D02*
G01*
X46262180Y-49376415D01*
X47277406Y-50391641D01*
X47310891Y-50452964D01*
X47305907Y-50522656D01*
X47264035Y-50578589D01*
X47213917Y-50600939D01*
X47066508Y-50630261D01*
X47066498Y-50630264D01*
X46920827Y-50690602D01*
X46920814Y-50690609D01*
X46789711Y-50778210D01*
X46789707Y-50778213D01*
X46678213Y-50889707D01*
X46678210Y-50889711D01*
X46590609Y-51020814D01*
X46590602Y-51020827D01*
X46530264Y-51166498D01*
X46530261Y-51166508D01*
X46499361Y-51321850D01*
X46490596Y-51338605D01*
X46486577Y-51357084D01*
X46467832Y-51382122D01*
X46466976Y-51383761D01*
X46465426Y-51385338D01*
X46407585Y-51443180D01*
X46346262Y-51476666D01*
X46319903Y-51479500D01*
X46143607Y-51479500D01*
X46076568Y-51459815D01*
X46030813Y-51407011D01*
X46020869Y-51337853D01*
X46027425Y-51312167D01*
X46028935Y-51308117D01*
X46044091Y-51267483D01*
X46050500Y-51207873D01*
X46050499Y-50412128D01*
X46044091Y-50352517D01*
X45994042Y-50218330D01*
X45989059Y-50148642D01*
X45994039Y-50131678D01*
X46044091Y-49997483D01*
X46050500Y-49937873D01*
X46050499Y-49464095D01*
X46070183Y-49397057D01*
X46122987Y-49351302D01*
X46192146Y-49341358D01*
X46255702Y-49370383D01*
G37*
%TD.AperFunction*%
%TA.AperFunction,NonConductor*%
G36*
X56577942Y-52020185D02*
G01*
X56623697Y-52072989D01*
X56633641Y-52142147D01*
X56604616Y-52205703D01*
X56598584Y-52212181D01*
X56097584Y-52713181D01*
X56036261Y-52746666D01*
X56009903Y-52749500D01*
X51858607Y-52749500D01*
X51791568Y-52729815D01*
X51745813Y-52677011D01*
X51735869Y-52607853D01*
X51742425Y-52582167D01*
X51743099Y-52580358D01*
X51759091Y-52537483D01*
X51765500Y-52477873D01*
X51765499Y-52324499D01*
X51785183Y-52257461D01*
X51837987Y-52211706D01*
X51889499Y-52200500D01*
X51928844Y-52200500D01*
X51928845Y-52200499D01*
X52083497Y-52169737D01*
X52229179Y-52109394D01*
X52257456Y-52090500D01*
X52360875Y-52021398D01*
X52427553Y-52000520D01*
X52429766Y-52000500D01*
X56510903Y-52000500D01*
X56577942Y-52020185D01*
G37*
%TD.AperFunction*%
%TA.AperFunction,NonConductor*%
G36*
X48261930Y-51393337D02*
G01*
X48308358Y-51422593D01*
X48928181Y-52042416D01*
X48961666Y-52103739D01*
X48964500Y-52130097D01*
X48964500Y-52477869D01*
X48964501Y-52477876D01*
X48970909Y-52537484D01*
X49020955Y-52671668D01*
X49025939Y-52741360D01*
X49020955Y-52758332D01*
X48970910Y-52892511D01*
X48970910Y-52892514D01*
X48970909Y-52892517D01*
X48964500Y-52952127D01*
X48964500Y-52952134D01*
X48964500Y-52952135D01*
X48964500Y-52952136D01*
X48964501Y-53475502D01*
X48944817Y-53542541D01*
X48892013Y-53588296D01*
X48840501Y-53599502D01*
X47650099Y-53599502D01*
X47583060Y-53579817D01*
X47562418Y-53563183D01*
X46987590Y-52988355D01*
X46987588Y-52988352D01*
X46868717Y-52869481D01*
X46868712Y-52869477D01*
X46847149Y-52857028D01*
X46798934Y-52806461D01*
X46785710Y-52737854D01*
X46811678Y-52672990D01*
X46847148Y-52642254D01*
X46851784Y-52639577D01*
X46851785Y-52639577D01*
X46916260Y-52602352D01*
X46988716Y-52560520D01*
X47100520Y-52448716D01*
X47100520Y-52448714D01*
X47110724Y-52438511D01*
X47110727Y-52438506D01*
X47314661Y-52234572D01*
X47375983Y-52201089D01*
X47378150Y-52200638D01*
X47436085Y-52189113D01*
X47533497Y-52169737D01*
X47679179Y-52109394D01*
X47810289Y-52021789D01*
X47921789Y-51910289D01*
X48009394Y-51779179D01*
X48069737Y-51633497D01*
X48092209Y-51520522D01*
X48099060Y-51486083D01*
X48131445Y-51424172D01*
X48192160Y-51389598D01*
X48261930Y-51393337D01*
G37*
%TD.AperFunction*%
%TA.AperFunction,NonConductor*%
G36*
X65942539Y-31170185D02*
G01*
X65988294Y-31222989D01*
X65999500Y-31274500D01*
X65999500Y-54475500D01*
X65979815Y-54542539D01*
X65927011Y-54588294D01*
X65875500Y-54599500D01*
X50745028Y-54599500D01*
X50677989Y-54579815D01*
X50632234Y-54527011D01*
X50622290Y-54457853D01*
X50623608Y-54450338D01*
X50625984Y-54438868D01*
X50628209Y-54433499D01*
X50654791Y-54299858D01*
X50654900Y-54299337D01*
X50671138Y-54268888D01*
X50687088Y-54238397D01*
X50687535Y-54238142D01*
X50687778Y-54237687D01*
X50717900Y-54220851D01*
X50747804Y-54203823D01*
X50748515Y-54203740D01*
X50748768Y-54203599D01*
X50749394Y-54203637D01*
X50776320Y-54200499D01*
X51312871Y-54200499D01*
X51312872Y-54200499D01*
X51372483Y-54194091D01*
X51507331Y-54143796D01*
X51622546Y-54057546D01*
X51649227Y-54021903D01*
X51665485Y-54000188D01*
X51721419Y-53958318D01*
X51764751Y-53950500D01*
X56223331Y-53950500D01*
X56223347Y-53950501D01*
X56230943Y-53950501D01*
X56389054Y-53950501D01*
X56389057Y-53950501D01*
X56541785Y-53909577D01*
X56591904Y-53880639D01*
X56678716Y-53830520D01*
X56790520Y-53718716D01*
X56790520Y-53718714D01*
X56800728Y-53708507D01*
X56800730Y-53708504D01*
X58087819Y-52421415D01*
X58149142Y-52387930D01*
X58218834Y-52392914D01*
X58274767Y-52434786D01*
X58299184Y-52500250D01*
X58299500Y-52509096D01*
X58299500Y-52602349D01*
X58299499Y-52602349D01*
X58331522Y-52804534D01*
X58394781Y-52999223D01*
X58487715Y-53181613D01*
X58608028Y-53347213D01*
X58752786Y-53491971D01*
X58885369Y-53588296D01*
X58918390Y-53612287D01*
X59034607Y-53671503D01*
X59100776Y-53705218D01*
X59100778Y-53705218D01*
X59100781Y-53705220D01*
X59205137Y-53739127D01*
X59295465Y-53768477D01*
X59396557Y-53784488D01*
X59497648Y-53800500D01*
X59497649Y-53800500D01*
X59702351Y-53800500D01*
X59702352Y-53800500D01*
X59904534Y-53768477D01*
X60099219Y-53705220D01*
X60281610Y-53612287D01*
X60377608Y-53542541D01*
X60447213Y-53491971D01*
X60447215Y-53491968D01*
X60447219Y-53491966D01*
X60591966Y-53347219D01*
X60591968Y-53347215D01*
X60591971Y-53347213D01*
X60644732Y-53274590D01*
X60712287Y-53181610D01*
X60805220Y-52999219D01*
X60868477Y-52804534D01*
X60900500Y-52602352D01*
X60900500Y-52397648D01*
X60898961Y-52387930D01*
X60868477Y-52195465D01*
X60818748Y-52042416D01*
X60805220Y-52000781D01*
X60805218Y-52000778D01*
X60805218Y-52000776D01*
X60758201Y-51908501D01*
X60712287Y-51818390D01*
X60683794Y-51779172D01*
X60591971Y-51652786D01*
X60447213Y-51508028D01*
X60281613Y-51387715D01*
X60281612Y-51387714D01*
X60281610Y-51387713D01*
X60210077Y-51351265D01*
X60099223Y-51294781D01*
X59904534Y-51231522D01*
X59729995Y-51203878D01*
X59702352Y-51199500D01*
X59609096Y-51199500D01*
X59542057Y-51179815D01*
X59496302Y-51127011D01*
X59486358Y-51057853D01*
X59515383Y-50994297D01*
X59521415Y-50987819D01*
X62437819Y-48071415D01*
X62499142Y-48037930D01*
X62568834Y-48042914D01*
X62624767Y-48084786D01*
X62649184Y-48150250D01*
X62649500Y-48159096D01*
X62649500Y-48306286D01*
X62678848Y-48491585D01*
X62682754Y-48516243D01*
X62737098Y-48683497D01*
X62748444Y-48718414D01*
X62844951Y-48907820D01*
X62969890Y-49079786D01*
X63083430Y-49193326D01*
X63116915Y-49254649D01*
X63111931Y-49324341D01*
X63070059Y-49380274D01*
X63039083Y-49397189D01*
X62907669Y-49446203D01*
X62907664Y-49446206D01*
X62792455Y-49532452D01*
X62792452Y-49532455D01*
X62706206Y-49647664D01*
X62706202Y-49647671D01*
X62655908Y-49782517D01*
X62649501Y-49842116D01*
X62649501Y-49842123D01*
X62649500Y-49842135D01*
X62649500Y-51637870D01*
X62649501Y-51637876D01*
X62655908Y-51697483D01*
X62706202Y-51832328D01*
X62706206Y-51832335D01*
X62792452Y-51947544D01*
X62792455Y-51947547D01*
X62907664Y-52033793D01*
X62907671Y-52033797D01*
X63042517Y-52084091D01*
X63042516Y-52084091D01*
X63049444Y-52084835D01*
X63102127Y-52090500D01*
X64897872Y-52090499D01*
X64957483Y-52084091D01*
X65092331Y-52033796D01*
X65207546Y-51947546D01*
X65293796Y-51832331D01*
X65344091Y-51697483D01*
X65350500Y-51637873D01*
X65350499Y-49842128D01*
X65344091Y-49782517D01*
X65325935Y-49733839D01*
X65293797Y-49647671D01*
X65293793Y-49647664D01*
X65207547Y-49532455D01*
X65207544Y-49532452D01*
X65092335Y-49446206D01*
X65092328Y-49446202D01*
X64960917Y-49397189D01*
X64904983Y-49355318D01*
X64880566Y-49289853D01*
X64895418Y-49221580D01*
X64916563Y-49193332D01*
X65030104Y-49079792D01*
X65035919Y-49071789D01*
X65155048Y-48907820D01*
X65155047Y-48907820D01*
X65155051Y-48907816D01*
X65251557Y-48718412D01*
X65317246Y-48516243D01*
X65350500Y-48306287D01*
X65350500Y-48093713D01*
X65317246Y-47883757D01*
X65251557Y-47681588D01*
X65155051Y-47492184D01*
X65155049Y-47492181D01*
X65155048Y-47492179D01*
X65030109Y-47320213D01*
X64879786Y-47169890D01*
X64707820Y-47044951D01*
X64707115Y-47044591D01*
X64699054Y-47040485D01*
X64648259Y-46992512D01*
X64631463Y-46924692D01*
X64653999Y-46858556D01*
X64699054Y-46819515D01*
X64707816Y-46815051D01*
X64747473Y-46786239D01*
X64879786Y-46690109D01*
X64879788Y-46690106D01*
X64879792Y-46690104D01*
X65030104Y-46539792D01*
X65030106Y-46539788D01*
X65030109Y-46539786D01*
X65155048Y-46367820D01*
X65155047Y-46367820D01*
X65155051Y-46367816D01*
X65251557Y-46178412D01*
X65317246Y-45976243D01*
X65350500Y-45766287D01*
X65350500Y-45553713D01*
X65317246Y-45343757D01*
X65251557Y-45141588D01*
X65155051Y-44952184D01*
X65155049Y-44952181D01*
X65155048Y-44952179D01*
X65030109Y-44780213D01*
X64879786Y-44629890D01*
X64707820Y-44504951D01*
X64707115Y-44504591D01*
X64699054Y-44500485D01*
X64648259Y-44452512D01*
X64631463Y-44384692D01*
X64653999Y-44318556D01*
X64699054Y-44279515D01*
X64707816Y-44275051D01*
X64780161Y-44222490D01*
X64879786Y-44150109D01*
X64879788Y-44150106D01*
X64879792Y-44150104D01*
X65030104Y-43999792D01*
X65030106Y-43999788D01*
X65030109Y-43999786D01*
X65155048Y-43827820D01*
X65155047Y-43827820D01*
X65155051Y-43827816D01*
X65251557Y-43638412D01*
X65317246Y-43436243D01*
X65350500Y-43226287D01*
X65350500Y-43013713D01*
X65317246Y-42803757D01*
X65251557Y-42601588D01*
X65155051Y-42412184D01*
X65155049Y-42412181D01*
X65155048Y-42412179D01*
X65030109Y-42240213D01*
X64879786Y-42089890D01*
X64707820Y-41964951D01*
X64707115Y-41964591D01*
X64699054Y-41960485D01*
X64648259Y-41912512D01*
X64631463Y-41844692D01*
X64653999Y-41778556D01*
X64699054Y-41739515D01*
X64707816Y-41735051D01*
X64747473Y-41706239D01*
X64879786Y-41610109D01*
X64879788Y-41610106D01*
X64879792Y-41610104D01*
X65030104Y-41459792D01*
X65030106Y-41459788D01*
X65030109Y-41459786D01*
X65155048Y-41287820D01*
X65155047Y-41287820D01*
X65155051Y-41287816D01*
X65251557Y-41098412D01*
X65317246Y-40896243D01*
X65350500Y-40686287D01*
X65350500Y-40473713D01*
X65317246Y-40263757D01*
X65251557Y-40061588D01*
X65155051Y-39872184D01*
X65155049Y-39872181D01*
X65155048Y-39872179D01*
X65030109Y-39700213D01*
X64879786Y-39549890D01*
X64707820Y-39424951D01*
X64707115Y-39424591D01*
X64699054Y-39420485D01*
X64648259Y-39372512D01*
X64631463Y-39304692D01*
X64653999Y-39238556D01*
X64699054Y-39199515D01*
X64707816Y-39195051D01*
X64792533Y-39133501D01*
X64879786Y-39070109D01*
X64879788Y-39070106D01*
X64879792Y-39070104D01*
X65030104Y-38919792D01*
X65030106Y-38919788D01*
X65030109Y-38919786D01*
X65155048Y-38747820D01*
X65155047Y-38747820D01*
X65155051Y-38747816D01*
X65251557Y-38558412D01*
X65317246Y-38356243D01*
X65350500Y-38146287D01*
X65350500Y-37933713D01*
X65317246Y-37723757D01*
X65251557Y-37521588D01*
X65155051Y-37332184D01*
X65155049Y-37332181D01*
X65155048Y-37332179D01*
X65030109Y-37160213D01*
X64879786Y-37009890D01*
X64707820Y-36884951D01*
X64707115Y-36884591D01*
X64699054Y-36880485D01*
X64648259Y-36832512D01*
X64631463Y-36764692D01*
X64653999Y-36698556D01*
X64699054Y-36659515D01*
X64707816Y-36655051D01*
X64747473Y-36626239D01*
X64879786Y-36530109D01*
X64879788Y-36530106D01*
X64879792Y-36530104D01*
X65030104Y-36379792D01*
X65030106Y-36379788D01*
X65030109Y-36379786D01*
X65155048Y-36207820D01*
X65155047Y-36207820D01*
X65155051Y-36207816D01*
X65251557Y-36018412D01*
X65317246Y-35816243D01*
X65350500Y-35606287D01*
X65350500Y-35393713D01*
X65317246Y-35183757D01*
X65251557Y-34981588D01*
X65155051Y-34792184D01*
X65155049Y-34792181D01*
X65155048Y-34792179D01*
X65030109Y-34620213D01*
X64879786Y-34469890D01*
X64707820Y-34344951D01*
X64699292Y-34340606D01*
X64699054Y-34340485D01*
X64648259Y-34292512D01*
X64631463Y-34224692D01*
X64653999Y-34158556D01*
X64699054Y-34119515D01*
X64707816Y-34115051D01*
X64756648Y-34079573D01*
X64879786Y-33990109D01*
X64879788Y-33990106D01*
X64879792Y-33990104D01*
X65030104Y-33839792D01*
X65030106Y-33839788D01*
X65030109Y-33839786D01*
X65155048Y-33667820D01*
X65155047Y-33667820D01*
X65155051Y-33667816D01*
X65251557Y-33478412D01*
X65317246Y-33276243D01*
X65350500Y-33066287D01*
X65350500Y-32853713D01*
X65317246Y-32643757D01*
X65251557Y-32441588D01*
X65155051Y-32252184D01*
X65155049Y-32252181D01*
X65155048Y-32252179D01*
X65030109Y-32080213D01*
X64879786Y-31929890D01*
X64707820Y-31804951D01*
X64518414Y-31708444D01*
X64518413Y-31708443D01*
X64518412Y-31708443D01*
X64316243Y-31642754D01*
X64316241Y-31642753D01*
X64316240Y-31642753D01*
X64154957Y-31617208D01*
X64106287Y-31609500D01*
X63893713Y-31609500D01*
X63845042Y-31617208D01*
X63683760Y-31642753D01*
X63481585Y-31708444D01*
X63292179Y-31804951D01*
X63120213Y-31929890D01*
X62969890Y-32080213D01*
X62844951Y-32252179D01*
X62748444Y-32441585D01*
X62682753Y-32643760D01*
X62649500Y-32853713D01*
X62649500Y-33066286D01*
X62682754Y-33276244D01*
X62682754Y-33276247D01*
X62696491Y-33318523D01*
X62698486Y-33388364D01*
X62666241Y-33444522D01*
X60387584Y-35723181D01*
X60326261Y-35756666D01*
X60299903Y-35759500D01*
X58439097Y-35759500D01*
X58417851Y-35753261D01*
X58395764Y-35751682D01*
X58384980Y-35743609D01*
X58372058Y-35739815D01*
X58357559Y-35723083D01*
X58339830Y-35709811D01*
X58335122Y-35697188D01*
X58326303Y-35687011D01*
X58323151Y-35665095D01*
X58315413Y-35644347D01*
X58318275Y-35631185D01*
X58316359Y-35617853D01*
X58325557Y-35597711D01*
X58330264Y-35576074D01*
X58343535Y-35558345D01*
X58345384Y-35554297D01*
X58351401Y-35547833D01*
X58414663Y-35484571D01*
X58475982Y-35451089D01*
X58478150Y-35450638D01*
X58536085Y-35439113D01*
X58633497Y-35419737D01*
X58779179Y-35359394D01*
X58910289Y-35271789D01*
X59021789Y-35160289D01*
X59109394Y-35029179D01*
X59109395Y-35029176D01*
X59109397Y-35029173D01*
X59139233Y-34957141D01*
X59183073Y-34902737D01*
X59249367Y-34880672D01*
X59292111Y-34886661D01*
X59363507Y-34909860D01*
X59436820Y-34921471D01*
X59620098Y-34950500D01*
X59620103Y-34950500D01*
X59879902Y-34950500D01*
X60012387Y-34929516D01*
X60136493Y-34909860D01*
X60383572Y-34829579D01*
X60615051Y-34711634D01*
X60825229Y-34558931D01*
X61008931Y-34375229D01*
X61161634Y-34165051D01*
X61279579Y-33933572D01*
X61359860Y-33686493D01*
X61387812Y-33510007D01*
X61400500Y-33429902D01*
X61400500Y-33170097D01*
X61378947Y-33034021D01*
X61359860Y-32913507D01*
X61279579Y-32666428D01*
X61279577Y-32666425D01*
X61279577Y-32666423D01*
X61236787Y-32582445D01*
X61161634Y-32434949D01*
X61008931Y-32224771D01*
X60825229Y-32041069D01*
X60755521Y-31990423D01*
X60615054Y-31888368D01*
X60615053Y-31888367D01*
X60615051Y-31888366D01*
X60524938Y-31842451D01*
X60383576Y-31770422D01*
X60136493Y-31690140D01*
X59879902Y-31649500D01*
X59879897Y-31649500D01*
X59620103Y-31649500D01*
X59620098Y-31649500D01*
X59363506Y-31690140D01*
X59116423Y-31770422D01*
X58884945Y-31888368D01*
X58674774Y-32041066D01*
X58674768Y-32041071D01*
X58491071Y-32224768D01*
X58491066Y-32224774D01*
X58338368Y-32434945D01*
X58220422Y-32666423D01*
X58140140Y-32913506D01*
X58099500Y-33170097D01*
X58099500Y-33429902D01*
X58140140Y-33686493D01*
X58163337Y-33757886D01*
X58165332Y-33827728D01*
X58129252Y-33887561D01*
X58092860Y-33910766D01*
X58020820Y-33940606D01*
X58020814Y-33940609D01*
X57889711Y-34028210D01*
X57889707Y-34028213D01*
X57778213Y-34139707D01*
X57778210Y-34139711D01*
X57690609Y-34270814D01*
X57690602Y-34270827D01*
X57630264Y-34416498D01*
X57630261Y-34416508D01*
X57599361Y-34571850D01*
X57566976Y-34633761D01*
X57565425Y-34635339D01*
X57077584Y-35123181D01*
X57016261Y-35156666D01*
X56989903Y-35159500D01*
X56674500Y-35159500D01*
X56607461Y-35139815D01*
X56561706Y-35087011D01*
X56550500Y-35035500D01*
X56550500Y-34971155D01*
X56550499Y-34971153D01*
X56536890Y-34902737D01*
X56519737Y-34816503D01*
X56519735Y-34816498D01*
X56459397Y-34670827D01*
X56459390Y-34670814D01*
X56371789Y-34539711D01*
X56371786Y-34539707D01*
X56260289Y-34428210D01*
X56172395Y-34369482D01*
X56127590Y-34315870D01*
X56118883Y-34246545D01*
X56140968Y-34193494D01*
X56161634Y-34165051D01*
X56279579Y-33933572D01*
X56359860Y-33686493D01*
X56387812Y-33510007D01*
X56400500Y-33429902D01*
X56400500Y-33170097D01*
X56378947Y-33034021D01*
X56359860Y-32913507D01*
X56279579Y-32666428D01*
X56279577Y-32666425D01*
X56279577Y-32666423D01*
X56236787Y-32582445D01*
X56161634Y-32434949D01*
X56008931Y-32224771D01*
X55825229Y-32041069D01*
X55755521Y-31990423D01*
X55615054Y-31888368D01*
X55615053Y-31888367D01*
X55615051Y-31888366D01*
X55524938Y-31842451D01*
X55383576Y-31770422D01*
X55136493Y-31690140D01*
X54879902Y-31649500D01*
X54879897Y-31649500D01*
X54620103Y-31649500D01*
X54620098Y-31649500D01*
X54363506Y-31690140D01*
X54116423Y-31770422D01*
X53884948Y-31888366D01*
X53833401Y-31925818D01*
X53767594Y-31949298D01*
X53760515Y-31949500D01*
X51799751Y-31949500D01*
X51732712Y-31929815D01*
X51700485Y-31899812D01*
X51657548Y-31842457D01*
X51657546Y-31842454D01*
X51607446Y-31804949D01*
X51542335Y-31756206D01*
X51542328Y-31756202D01*
X51407482Y-31705908D01*
X51407483Y-31705908D01*
X51347883Y-31699501D01*
X51347881Y-31699500D01*
X51347873Y-31699500D01*
X51347864Y-31699500D01*
X49452129Y-31699500D01*
X49452123Y-31699501D01*
X49392516Y-31705908D01*
X49257671Y-31756202D01*
X49257664Y-31756206D01*
X49142455Y-31842452D01*
X49142452Y-31842455D01*
X49056206Y-31957664D01*
X49056202Y-31957671D01*
X49005908Y-32092517D01*
X48999501Y-32152116D01*
X48999500Y-32152135D01*
X48999500Y-32419409D01*
X48979815Y-32486448D01*
X48927011Y-32532203D01*
X48879624Y-32542511D01*
X48879654Y-32542812D01*
X48877078Y-32543065D01*
X48875500Y-32543409D01*
X48873591Y-32543409D01*
X48718946Y-32574170D01*
X48718934Y-32574173D01*
X48573263Y-32634511D01*
X48573252Y-32634517D01*
X48460344Y-32709960D01*
X48393667Y-32730837D01*
X48326287Y-32712352D01*
X48303773Y-32694538D01*
X46971416Y-31362181D01*
X46937931Y-31300858D01*
X46942915Y-31231166D01*
X46984787Y-31175233D01*
X47050251Y-31150816D01*
X47059097Y-31150500D01*
X65875500Y-31150500D01*
X65942539Y-31170185D01*
G37*
%TD.AperFunction*%
%TA.AperFunction,NonConductor*%
G36*
X43947615Y-31170185D02*
G01*
X43993370Y-31222989D01*
X44003314Y-31292147D01*
X43995137Y-31321952D01*
X43935264Y-31466498D01*
X43935261Y-31466508D01*
X43908769Y-31599692D01*
X43876384Y-31661603D01*
X43815668Y-31696177D01*
X43787154Y-31699500D01*
X43737131Y-31699500D01*
X43737123Y-31699501D01*
X43677516Y-31705908D01*
X43542671Y-31756202D01*
X43542664Y-31756206D01*
X43427457Y-31842451D01*
X43427451Y-31842457D01*
X43384515Y-31899812D01*
X43380859Y-31902548D01*
X43378962Y-31906703D01*
X43353144Y-31923294D01*
X43328581Y-31941682D01*
X43322953Y-31942697D01*
X43320184Y-31944477D01*
X43285249Y-31949500D01*
X43036669Y-31949500D01*
X43036653Y-31949499D01*
X43029057Y-31949499D01*
X42870943Y-31949499D01*
X42756397Y-31980192D01*
X42718214Y-31990423D01*
X42705182Y-31997948D01*
X42705180Y-31997949D01*
X42581287Y-32069477D01*
X42581282Y-32069481D01*
X41028954Y-33621809D01*
X41028953Y-33621811D01*
X40991609Y-33686493D01*
X40949896Y-33758742D01*
X40908972Y-33911470D01*
X40908972Y-33911472D01*
X40908972Y-34079573D01*
X40908973Y-34079586D01*
X40908973Y-34985234D01*
X40889288Y-35052273D01*
X40888075Y-35054125D01*
X40800082Y-35185814D01*
X40800075Y-35185827D01*
X40739737Y-35331498D01*
X40739734Y-35331510D01*
X40708973Y-35486153D01*
X40708973Y-35643846D01*
X40739734Y-35798489D01*
X40739737Y-35798501D01*
X40800075Y-35944172D01*
X40800085Y-35944190D01*
X40875522Y-36057090D01*
X40896400Y-36123767D01*
X40877915Y-36191147D01*
X40860101Y-36213661D01*
X36502043Y-40571719D01*
X36440720Y-40605204D01*
X36371028Y-40600220D01*
X36315095Y-40558348D01*
X36314043Y-40556921D01*
X36280111Y-40510216D01*
X36280105Y-40510209D01*
X36129786Y-40359890D01*
X35957820Y-40234951D01*
X35957115Y-40234591D01*
X35949054Y-40230485D01*
X35898259Y-40182512D01*
X35881463Y-40114692D01*
X35903999Y-40048556D01*
X35949054Y-40009515D01*
X35957816Y-40005051D01*
X36040338Y-39945096D01*
X36129786Y-39880109D01*
X36129788Y-39880106D01*
X36129792Y-39880104D01*
X36280104Y-39729792D01*
X36280106Y-39729788D01*
X36280109Y-39729786D01*
X36397305Y-39568477D01*
X36405051Y-39557816D01*
X36501557Y-39368412D01*
X36567246Y-39166243D01*
X36600500Y-38956287D01*
X36600500Y-38743713D01*
X36567246Y-38533757D01*
X36501557Y-38331588D01*
X36405051Y-38142184D01*
X36405049Y-38142181D01*
X36405048Y-38142179D01*
X36280109Y-37970213D01*
X36129786Y-37819890D01*
X35957820Y-37694951D01*
X35957115Y-37694591D01*
X35949054Y-37690485D01*
X35898259Y-37642512D01*
X35881463Y-37574692D01*
X35903999Y-37508556D01*
X35949054Y-37469515D01*
X35957816Y-37465051D01*
X36028490Y-37413704D01*
X36129786Y-37340109D01*
X36129788Y-37340106D01*
X36129792Y-37340104D01*
X36280104Y-37189792D01*
X36280106Y-37189788D01*
X36280109Y-37189786D01*
X36405048Y-37017820D01*
X36405047Y-37017820D01*
X36405051Y-37017816D01*
X36501557Y-36828412D01*
X36567246Y-36626243D01*
X36600500Y-36416287D01*
X36600500Y-36203713D01*
X36567246Y-35993757D01*
X36501557Y-35791588D01*
X36405051Y-35602184D01*
X36405049Y-35602181D01*
X36405048Y-35602179D01*
X36280109Y-35430213D01*
X36129786Y-35279890D01*
X35957820Y-35154951D01*
X35957115Y-35154591D01*
X35949054Y-35150485D01*
X35898259Y-35102512D01*
X35881463Y-35034692D01*
X35903999Y-34968556D01*
X35949054Y-34929515D01*
X35957816Y-34925051D01*
X36018899Y-34880672D01*
X36129786Y-34800109D01*
X36129788Y-34800106D01*
X36129792Y-34800104D01*
X36280104Y-34649792D01*
X36280106Y-34649788D01*
X36280109Y-34649786D01*
X36405048Y-34477820D01*
X36405047Y-34477820D01*
X36405051Y-34477816D01*
X36501557Y-34288412D01*
X36567246Y-34086243D01*
X36600500Y-33876287D01*
X36600500Y-33663713D01*
X36567246Y-33453757D01*
X36501557Y-33251588D01*
X36405051Y-33062184D01*
X36405049Y-33062181D01*
X36405048Y-33062179D01*
X36280109Y-32890213D01*
X36129786Y-32739890D01*
X35957820Y-32614951D01*
X35768414Y-32518444D01*
X35768413Y-32518443D01*
X35768412Y-32518443D01*
X35566243Y-32452754D01*
X35566241Y-32452753D01*
X35566240Y-32452753D01*
X35404957Y-32427208D01*
X35356287Y-32419500D01*
X35143713Y-32419500D01*
X35095042Y-32427208D01*
X34933760Y-32452753D01*
X34731585Y-32518444D01*
X34542179Y-32614951D01*
X34370213Y-32739890D01*
X34219890Y-32890213D01*
X34094951Y-33062179D01*
X33998444Y-33251585D01*
X33932753Y-33453760D01*
X33905386Y-33626550D01*
X33899500Y-33663713D01*
X33899500Y-33876287D01*
X33905073Y-33911472D01*
X33931699Y-34079586D01*
X33932754Y-34086243D01*
X33994893Y-34277487D01*
X33998444Y-34288414D01*
X34094951Y-34477820D01*
X34219890Y-34649786D01*
X34370213Y-34800109D01*
X34542182Y-34925050D01*
X34550946Y-34929516D01*
X34601742Y-34977491D01*
X34618536Y-35045312D01*
X34595998Y-35111447D01*
X34550946Y-35150484D01*
X34542182Y-35154949D01*
X34370213Y-35279890D01*
X34219890Y-35430213D01*
X34094951Y-35602179D01*
X33998444Y-35791585D01*
X33932753Y-35993760D01*
X33905392Y-36166510D01*
X33899500Y-36203713D01*
X33899500Y-36416287D01*
X33932754Y-36626243D01*
X33994892Y-36817484D01*
X33998444Y-36828414D01*
X34094951Y-37017820D01*
X34219890Y-37189786D01*
X34370213Y-37340109D01*
X34542182Y-37465050D01*
X34550946Y-37469516D01*
X34601742Y-37517491D01*
X34618536Y-37585312D01*
X34595998Y-37651447D01*
X34550946Y-37690484D01*
X34542182Y-37694949D01*
X34370213Y-37819890D01*
X34219890Y-37970213D01*
X34094951Y-38142179D01*
X33998444Y-38331585D01*
X33932753Y-38533760D01*
X33899500Y-38743713D01*
X33899500Y-38956286D01*
X33927567Y-39133497D01*
X33932754Y-39166243D01*
X33994892Y-39357484D01*
X33998444Y-39368414D01*
X34094951Y-39557820D01*
X34219890Y-39729786D01*
X34370213Y-39880109D01*
X34542182Y-40005050D01*
X34550946Y-40009516D01*
X34601742Y-40057491D01*
X34618536Y-40125312D01*
X34595998Y-40191447D01*
X34550946Y-40230484D01*
X34542182Y-40234949D01*
X34370213Y-40359890D01*
X34219890Y-40510213D01*
X34094951Y-40682179D01*
X33998444Y-40871585D01*
X33932753Y-41073760D01*
X33899500Y-41283713D01*
X33899500Y-41496287D01*
X33932754Y-41706243D01*
X33995803Y-41900288D01*
X33998444Y-41908414D01*
X34094951Y-42097820D01*
X34219890Y-42269786D01*
X34370213Y-42420109D01*
X34542182Y-42545050D01*
X34550946Y-42549516D01*
X34601742Y-42597491D01*
X34618536Y-42665312D01*
X34595998Y-42731447D01*
X34550946Y-42770484D01*
X34542182Y-42774949D01*
X34370213Y-42899890D01*
X34219890Y-43050213D01*
X34094951Y-43222179D01*
X33998444Y-43411585D01*
X33932753Y-43613760D01*
X33899500Y-43823713D01*
X33899500Y-44036286D01*
X33928991Y-44222488D01*
X33932754Y-44246243D01*
X33985456Y-44408443D01*
X33998444Y-44448414D01*
X34094951Y-44637820D01*
X34219890Y-44809786D01*
X34370213Y-44960109D01*
X34542182Y-45085050D01*
X34550946Y-45089516D01*
X34601742Y-45137491D01*
X34618536Y-45205312D01*
X34595998Y-45271447D01*
X34550946Y-45310484D01*
X34542182Y-45314949D01*
X34370213Y-45439890D01*
X34219890Y-45590213D01*
X34094951Y-45762179D01*
X33998444Y-45951585D01*
X33932753Y-46153760D01*
X33899500Y-46363713D01*
X33899500Y-46576286D01*
X33928087Y-46756781D01*
X33932754Y-46786243D01*
X33985456Y-46948443D01*
X33998444Y-46988414D01*
X34094951Y-47177820D01*
X34219890Y-47349786D01*
X34370213Y-47500109D01*
X34542182Y-47625050D01*
X34550946Y-47629516D01*
X34601742Y-47677491D01*
X34618536Y-47745312D01*
X34595998Y-47811447D01*
X34550946Y-47850484D01*
X34542182Y-47854949D01*
X34370213Y-47979890D01*
X34219890Y-48130213D01*
X34094951Y-48302179D01*
X33998444Y-48491585D01*
X33932753Y-48693760D01*
X33899500Y-48903713D01*
X33899500Y-49116286D01*
X33932452Y-49324341D01*
X33932754Y-49326243D01*
X33996052Y-49521054D01*
X33998444Y-49528414D01*
X34094951Y-49717820D01*
X34219890Y-49889786D01*
X34333430Y-50003326D01*
X34366915Y-50064649D01*
X34361931Y-50134341D01*
X34320059Y-50190274D01*
X34289083Y-50207189D01*
X34157669Y-50256203D01*
X34157664Y-50256206D01*
X34042455Y-50342452D01*
X34042452Y-50342455D01*
X33956206Y-50457664D01*
X33956202Y-50457671D01*
X33905908Y-50592517D01*
X33899501Y-50652116D01*
X33899501Y-50652123D01*
X33899500Y-50652135D01*
X33899500Y-52447870D01*
X33899501Y-52447876D01*
X33905908Y-52507483D01*
X33956202Y-52642328D01*
X33956206Y-52642335D01*
X34042452Y-52757544D01*
X34042455Y-52757547D01*
X34157664Y-52843793D01*
X34157671Y-52843797D01*
X34292517Y-52894091D01*
X34292516Y-52894091D01*
X34299444Y-52894835D01*
X34352127Y-52900500D01*
X36147872Y-52900499D01*
X36207483Y-52894091D01*
X36342331Y-52843796D01*
X36457546Y-52757546D01*
X36543796Y-52642331D01*
X36594091Y-52507483D01*
X36600500Y-52447873D01*
X36600500Y-52274500D01*
X36620185Y-52207461D01*
X36672989Y-52161706D01*
X36724500Y-52150500D01*
X39513331Y-52150500D01*
X39513347Y-52150501D01*
X39520943Y-52150501D01*
X39679054Y-52150501D01*
X39679057Y-52150501D01*
X39831785Y-52109577D01*
X39881904Y-52080639D01*
X39968716Y-52030520D01*
X40080520Y-51918716D01*
X40080520Y-51918714D01*
X40090728Y-51908507D01*
X40090730Y-51908504D01*
X41679702Y-50319531D01*
X41741023Y-50286048D01*
X41810715Y-50291032D01*
X41866648Y-50332904D01*
X41891065Y-50398368D01*
X41876213Y-50466641D01*
X41870484Y-50476104D01*
X41840608Y-50520816D01*
X41840602Y-50520827D01*
X41780264Y-50666498D01*
X41780261Y-50666510D01*
X41749500Y-50821153D01*
X41749500Y-50978846D01*
X41780261Y-51133489D01*
X41780264Y-51133501D01*
X41840602Y-51279172D01*
X41840609Y-51279185D01*
X41928210Y-51410288D01*
X41928213Y-51410292D01*
X42039707Y-51521786D01*
X42039711Y-51521789D01*
X42170814Y-51609390D01*
X42170827Y-51609397D01*
X42275567Y-51652781D01*
X42316503Y-51669737D01*
X42455986Y-51697482D01*
X42471153Y-51700499D01*
X42471156Y-51700500D01*
X42471158Y-51700500D01*
X42628844Y-51700500D01*
X42628845Y-51700499D01*
X42783497Y-51669737D01*
X42929179Y-51609394D01*
X43060289Y-51521789D01*
X43060293Y-51521784D01*
X43062183Y-51520522D01*
X43128861Y-51499644D01*
X43196241Y-51518128D01*
X43242932Y-51570107D01*
X43254364Y-51636877D01*
X43249500Y-51682127D01*
X43249500Y-51682131D01*
X43249500Y-51682132D01*
X43249500Y-52477870D01*
X43249501Y-52477876D01*
X43255909Y-52537484D01*
X43305955Y-52671668D01*
X43310939Y-52741360D01*
X43305955Y-52758332D01*
X43255909Y-52892514D01*
X43255908Y-52892516D01*
X43249501Y-52952116D01*
X43249500Y-52952135D01*
X43249500Y-53747870D01*
X43249501Y-53747876D01*
X43255908Y-53807483D01*
X43306202Y-53942328D01*
X43306206Y-53942335D01*
X43392452Y-54057544D01*
X43392455Y-54057547D01*
X43507664Y-54143793D01*
X43507671Y-54143797D01*
X43642517Y-54194091D01*
X43642516Y-54194091D01*
X43649444Y-54194835D01*
X43702127Y-54200500D01*
X45597872Y-54200499D01*
X45657483Y-54194091D01*
X45792331Y-54143796D01*
X45907546Y-54057546D01*
X45934227Y-54021903D01*
X45950485Y-54000188D01*
X45954140Y-53997451D01*
X45956038Y-53993297D01*
X45981855Y-53976705D01*
X46006419Y-53958318D01*
X46012046Y-53957302D01*
X46014816Y-53955523D01*
X46049751Y-53950500D01*
X46199903Y-53950500D01*
X46266942Y-53970185D01*
X46287584Y-53986819D01*
X46688584Y-54387819D01*
X46722069Y-54449142D01*
X46717085Y-54518834D01*
X46675213Y-54574767D01*
X46609749Y-54599184D01*
X46600903Y-54599500D01*
X33774500Y-54599500D01*
X33707461Y-54579815D01*
X33661706Y-54527011D01*
X33650500Y-54475500D01*
X33650500Y-31274500D01*
X33670185Y-31207461D01*
X33722989Y-31161706D01*
X33774500Y-31150500D01*
X43880576Y-31150500D01*
X43947615Y-31170185D01*
G37*
%TD.AperFunction*%
M02*
