%TF.GenerationSoftware,KiCad,Pcbnew,9.0.3*%
%TF.CreationDate,2025-08-21T17:44:14+02:00*%
%TF.ProjectId,Tri-State-Buffer,5472692d-5374-4617-9465-2d4275666665,rev?*%
%TF.SameCoordinates,Original*%
%TF.FileFunction,Legend,Bot*%
%TF.FilePolarity,Positive*%
%FSLAX46Y46*%
G04 Gerber Fmt 4.6, Leading zero omitted, Abs format (unit mm)*
G04 Created by KiCad (PCBNEW 9.0.3) date 2025-08-21 17:44:14*
%MOMM*%
%LPD*%
G01*
G04 APERTURE LIST*
%ADD10C,0.150000*%
%ADD11C,0.120000*%
G04 APERTURE END LIST*
D10*
X45493094Y-30729819D02*
X45493094Y-29729819D01*
X45493094Y-29729819D02*
X45254999Y-29729819D01*
X45254999Y-29729819D02*
X45112142Y-29777438D01*
X45112142Y-29777438D02*
X45016904Y-29872676D01*
X45016904Y-29872676D02*
X44969285Y-29967914D01*
X44969285Y-29967914D02*
X44921666Y-30158390D01*
X44921666Y-30158390D02*
X44921666Y-30301247D01*
X44921666Y-30301247D02*
X44969285Y-30491723D01*
X44969285Y-30491723D02*
X45016904Y-30586961D01*
X45016904Y-30586961D02*
X45112142Y-30682200D01*
X45112142Y-30682200D02*
X45254999Y-30729819D01*
X45254999Y-30729819D02*
X45493094Y-30729819D01*
X44350237Y-30158390D02*
X44445475Y-30110771D01*
X44445475Y-30110771D02*
X44493094Y-30063152D01*
X44493094Y-30063152D02*
X44540713Y-29967914D01*
X44540713Y-29967914D02*
X44540713Y-29920295D01*
X44540713Y-29920295D02*
X44493094Y-29825057D01*
X44493094Y-29825057D02*
X44445475Y-29777438D01*
X44445475Y-29777438D02*
X44350237Y-29729819D01*
X44350237Y-29729819D02*
X44159761Y-29729819D01*
X44159761Y-29729819D02*
X44064523Y-29777438D01*
X44064523Y-29777438D02*
X44016904Y-29825057D01*
X44016904Y-29825057D02*
X43969285Y-29920295D01*
X43969285Y-29920295D02*
X43969285Y-29967914D01*
X43969285Y-29967914D02*
X44016904Y-30063152D01*
X44016904Y-30063152D02*
X44064523Y-30110771D01*
X44064523Y-30110771D02*
X44159761Y-30158390D01*
X44159761Y-30158390D02*
X44350237Y-30158390D01*
X44350237Y-30158390D02*
X44445475Y-30206009D01*
X44445475Y-30206009D02*
X44493094Y-30253628D01*
X44493094Y-30253628D02*
X44540713Y-30348866D01*
X44540713Y-30348866D02*
X44540713Y-30539342D01*
X44540713Y-30539342D02*
X44493094Y-30634580D01*
X44493094Y-30634580D02*
X44445475Y-30682200D01*
X44445475Y-30682200D02*
X44350237Y-30729819D01*
X44350237Y-30729819D02*
X44159761Y-30729819D01*
X44159761Y-30729819D02*
X44064523Y-30682200D01*
X44064523Y-30682200D02*
X44016904Y-30634580D01*
X44016904Y-30634580D02*
X43969285Y-30539342D01*
X43969285Y-30539342D02*
X43969285Y-30348866D01*
X43969285Y-30348866D02*
X44016904Y-30253628D01*
X44016904Y-30253628D02*
X44064523Y-30206009D01*
X44064523Y-30206009D02*
X44159761Y-30158390D01*
X49666666Y-37204819D02*
X49999999Y-36728628D01*
X50238094Y-37204819D02*
X50238094Y-36204819D01*
X50238094Y-36204819D02*
X49857142Y-36204819D01*
X49857142Y-36204819D02*
X49761904Y-36252438D01*
X49761904Y-36252438D02*
X49714285Y-36300057D01*
X49714285Y-36300057D02*
X49666666Y-36395295D01*
X49666666Y-36395295D02*
X49666666Y-36538152D01*
X49666666Y-36538152D02*
X49714285Y-36633390D01*
X49714285Y-36633390D02*
X49761904Y-36681009D01*
X49761904Y-36681009D02*
X49857142Y-36728628D01*
X49857142Y-36728628D02*
X50238094Y-36728628D01*
X49333332Y-36204819D02*
X48666666Y-36204819D01*
X48666666Y-36204819D02*
X49095237Y-37204819D01*
X45493094Y-39849819D02*
X45493094Y-38849819D01*
X45493094Y-38849819D02*
X45254999Y-38849819D01*
X45254999Y-38849819D02*
X45112142Y-38897438D01*
X45112142Y-38897438D02*
X45016904Y-38992676D01*
X45016904Y-38992676D02*
X44969285Y-39087914D01*
X44969285Y-39087914D02*
X44921666Y-39278390D01*
X44921666Y-39278390D02*
X44921666Y-39421247D01*
X44921666Y-39421247D02*
X44969285Y-39611723D01*
X44969285Y-39611723D02*
X45016904Y-39706961D01*
X45016904Y-39706961D02*
X45112142Y-39802200D01*
X45112142Y-39802200D02*
X45254999Y-39849819D01*
X45254999Y-39849819D02*
X45493094Y-39849819D01*
X44016904Y-38849819D02*
X44493094Y-38849819D01*
X44493094Y-38849819D02*
X44540713Y-39326009D01*
X44540713Y-39326009D02*
X44493094Y-39278390D01*
X44493094Y-39278390D02*
X44397856Y-39230771D01*
X44397856Y-39230771D02*
X44159761Y-39230771D01*
X44159761Y-39230771D02*
X44064523Y-39278390D01*
X44064523Y-39278390D02*
X44016904Y-39326009D01*
X44016904Y-39326009D02*
X43969285Y-39421247D01*
X43969285Y-39421247D02*
X43969285Y-39659342D01*
X43969285Y-39659342D02*
X44016904Y-39754580D01*
X44016904Y-39754580D02*
X44064523Y-39802200D01*
X44064523Y-39802200D02*
X44159761Y-39849819D01*
X44159761Y-39849819D02*
X44397856Y-39849819D01*
X44397856Y-39849819D02*
X44493094Y-39802200D01*
X44493094Y-39802200D02*
X44540713Y-39754580D01*
X49666666Y-49004819D02*
X49999999Y-48528628D01*
X50238094Y-49004819D02*
X50238094Y-48004819D01*
X50238094Y-48004819D02*
X49857142Y-48004819D01*
X49857142Y-48004819D02*
X49761904Y-48052438D01*
X49761904Y-48052438D02*
X49714285Y-48100057D01*
X49714285Y-48100057D02*
X49666666Y-48195295D01*
X49666666Y-48195295D02*
X49666666Y-48338152D01*
X49666666Y-48338152D02*
X49714285Y-48433390D01*
X49714285Y-48433390D02*
X49761904Y-48481009D01*
X49761904Y-48481009D02*
X49857142Y-48528628D01*
X49857142Y-48528628D02*
X50238094Y-48528628D01*
X49333332Y-48004819D02*
X48714285Y-48004819D01*
X48714285Y-48004819D02*
X49047618Y-48385771D01*
X49047618Y-48385771D02*
X48904761Y-48385771D01*
X48904761Y-48385771D02*
X48809523Y-48433390D01*
X48809523Y-48433390D02*
X48761904Y-48481009D01*
X48761904Y-48481009D02*
X48714285Y-48576247D01*
X48714285Y-48576247D02*
X48714285Y-48814342D01*
X48714285Y-48814342D02*
X48761904Y-48909580D01*
X48761904Y-48909580D02*
X48809523Y-48957200D01*
X48809523Y-48957200D02*
X48904761Y-49004819D01*
X48904761Y-49004819D02*
X49190475Y-49004819D01*
X49190475Y-49004819D02*
X49285713Y-48957200D01*
X49285713Y-48957200D02*
X49333332Y-48909580D01*
X49666666Y-54904819D02*
X49999999Y-54428628D01*
X50238094Y-54904819D02*
X50238094Y-53904819D01*
X50238094Y-53904819D02*
X49857142Y-53904819D01*
X49857142Y-53904819D02*
X49761904Y-53952438D01*
X49761904Y-53952438D02*
X49714285Y-54000057D01*
X49714285Y-54000057D02*
X49666666Y-54095295D01*
X49666666Y-54095295D02*
X49666666Y-54238152D01*
X49666666Y-54238152D02*
X49714285Y-54333390D01*
X49714285Y-54333390D02*
X49761904Y-54381009D01*
X49761904Y-54381009D02*
X49857142Y-54428628D01*
X49857142Y-54428628D02*
X50238094Y-54428628D01*
X48714285Y-54904819D02*
X49285713Y-54904819D01*
X48999999Y-54904819D02*
X48999999Y-53904819D01*
X48999999Y-53904819D02*
X49095237Y-54047676D01*
X49095237Y-54047676D02*
X49190475Y-54142914D01*
X49190475Y-54142914D02*
X49285713Y-54190533D01*
X49666666Y-46054819D02*
X49999999Y-45578628D01*
X50238094Y-46054819D02*
X50238094Y-45054819D01*
X50238094Y-45054819D02*
X49857142Y-45054819D01*
X49857142Y-45054819D02*
X49761904Y-45102438D01*
X49761904Y-45102438D02*
X49714285Y-45150057D01*
X49714285Y-45150057D02*
X49666666Y-45245295D01*
X49666666Y-45245295D02*
X49666666Y-45388152D01*
X49666666Y-45388152D02*
X49714285Y-45483390D01*
X49714285Y-45483390D02*
X49761904Y-45531009D01*
X49761904Y-45531009D02*
X49857142Y-45578628D01*
X49857142Y-45578628D02*
X50238094Y-45578628D01*
X48809523Y-45388152D02*
X48809523Y-46054819D01*
X49047618Y-45007200D02*
X49285713Y-45721485D01*
X49285713Y-45721485D02*
X48666666Y-45721485D01*
X49666666Y-40154819D02*
X49999999Y-39678628D01*
X50238094Y-40154819D02*
X50238094Y-39154819D01*
X50238094Y-39154819D02*
X49857142Y-39154819D01*
X49857142Y-39154819D02*
X49761904Y-39202438D01*
X49761904Y-39202438D02*
X49714285Y-39250057D01*
X49714285Y-39250057D02*
X49666666Y-39345295D01*
X49666666Y-39345295D02*
X49666666Y-39488152D01*
X49666666Y-39488152D02*
X49714285Y-39583390D01*
X49714285Y-39583390D02*
X49761904Y-39631009D01*
X49761904Y-39631009D02*
X49857142Y-39678628D01*
X49857142Y-39678628D02*
X50238094Y-39678628D01*
X48809523Y-39154819D02*
X48999999Y-39154819D01*
X48999999Y-39154819D02*
X49095237Y-39202438D01*
X49095237Y-39202438D02*
X49142856Y-39250057D01*
X49142856Y-39250057D02*
X49238094Y-39392914D01*
X49238094Y-39392914D02*
X49285713Y-39583390D01*
X49285713Y-39583390D02*
X49285713Y-39964342D01*
X49285713Y-39964342D02*
X49238094Y-40059580D01*
X49238094Y-40059580D02*
X49190475Y-40107200D01*
X49190475Y-40107200D02*
X49095237Y-40154819D01*
X49095237Y-40154819D02*
X48904761Y-40154819D01*
X48904761Y-40154819D02*
X48809523Y-40107200D01*
X48809523Y-40107200D02*
X48761904Y-40059580D01*
X48761904Y-40059580D02*
X48714285Y-39964342D01*
X48714285Y-39964342D02*
X48714285Y-39726247D01*
X48714285Y-39726247D02*
X48761904Y-39631009D01*
X48761904Y-39631009D02*
X48809523Y-39583390D01*
X48809523Y-39583390D02*
X48904761Y-39535771D01*
X48904761Y-39535771D02*
X49095237Y-39535771D01*
X49095237Y-39535771D02*
X49190475Y-39583390D01*
X49190475Y-39583390D02*
X49238094Y-39631009D01*
X49238094Y-39631009D02*
X49285713Y-39726247D01*
X45493094Y-48969819D02*
X45493094Y-47969819D01*
X45493094Y-47969819D02*
X45254999Y-47969819D01*
X45254999Y-47969819D02*
X45112142Y-48017438D01*
X45112142Y-48017438D02*
X45016904Y-48112676D01*
X45016904Y-48112676D02*
X44969285Y-48207914D01*
X44969285Y-48207914D02*
X44921666Y-48398390D01*
X44921666Y-48398390D02*
X44921666Y-48541247D01*
X44921666Y-48541247D02*
X44969285Y-48731723D01*
X44969285Y-48731723D02*
X45016904Y-48826961D01*
X45016904Y-48826961D02*
X45112142Y-48922200D01*
X45112142Y-48922200D02*
X45254999Y-48969819D01*
X45254999Y-48969819D02*
X45493094Y-48969819D01*
X44540713Y-48065057D02*
X44493094Y-48017438D01*
X44493094Y-48017438D02*
X44397856Y-47969819D01*
X44397856Y-47969819D02*
X44159761Y-47969819D01*
X44159761Y-47969819D02*
X44064523Y-48017438D01*
X44064523Y-48017438D02*
X44016904Y-48065057D01*
X44016904Y-48065057D02*
X43969285Y-48160295D01*
X43969285Y-48160295D02*
X43969285Y-48255533D01*
X43969285Y-48255533D02*
X44016904Y-48398390D01*
X44016904Y-48398390D02*
X44588332Y-48969819D01*
X44588332Y-48969819D02*
X43969285Y-48969819D01*
X45493094Y-36809819D02*
X45493094Y-35809819D01*
X45493094Y-35809819D02*
X45254999Y-35809819D01*
X45254999Y-35809819D02*
X45112142Y-35857438D01*
X45112142Y-35857438D02*
X45016904Y-35952676D01*
X45016904Y-35952676D02*
X44969285Y-36047914D01*
X44969285Y-36047914D02*
X44921666Y-36238390D01*
X44921666Y-36238390D02*
X44921666Y-36381247D01*
X44921666Y-36381247D02*
X44969285Y-36571723D01*
X44969285Y-36571723D02*
X45016904Y-36666961D01*
X45016904Y-36666961D02*
X45112142Y-36762200D01*
X45112142Y-36762200D02*
X45254999Y-36809819D01*
X45254999Y-36809819D02*
X45493094Y-36809819D01*
X44064523Y-35809819D02*
X44254999Y-35809819D01*
X44254999Y-35809819D02*
X44350237Y-35857438D01*
X44350237Y-35857438D02*
X44397856Y-35905057D01*
X44397856Y-35905057D02*
X44493094Y-36047914D01*
X44493094Y-36047914D02*
X44540713Y-36238390D01*
X44540713Y-36238390D02*
X44540713Y-36619342D01*
X44540713Y-36619342D02*
X44493094Y-36714580D01*
X44493094Y-36714580D02*
X44445475Y-36762200D01*
X44445475Y-36762200D02*
X44350237Y-36809819D01*
X44350237Y-36809819D02*
X44159761Y-36809819D01*
X44159761Y-36809819D02*
X44064523Y-36762200D01*
X44064523Y-36762200D02*
X44016904Y-36714580D01*
X44016904Y-36714580D02*
X43969285Y-36619342D01*
X43969285Y-36619342D02*
X43969285Y-36381247D01*
X43969285Y-36381247D02*
X44016904Y-36286009D01*
X44016904Y-36286009D02*
X44064523Y-36238390D01*
X44064523Y-36238390D02*
X44159761Y-36190771D01*
X44159761Y-36190771D02*
X44350237Y-36190771D01*
X44350237Y-36190771D02*
X44445475Y-36238390D01*
X44445475Y-36238390D02*
X44493094Y-36286009D01*
X44493094Y-36286009D02*
X44540713Y-36381247D01*
X45493094Y-52009819D02*
X45493094Y-51009819D01*
X45493094Y-51009819D02*
X45254999Y-51009819D01*
X45254999Y-51009819D02*
X45112142Y-51057438D01*
X45112142Y-51057438D02*
X45016904Y-51152676D01*
X45016904Y-51152676D02*
X44969285Y-51247914D01*
X44969285Y-51247914D02*
X44921666Y-51438390D01*
X44921666Y-51438390D02*
X44921666Y-51581247D01*
X44921666Y-51581247D02*
X44969285Y-51771723D01*
X44969285Y-51771723D02*
X45016904Y-51866961D01*
X45016904Y-51866961D02*
X45112142Y-51962200D01*
X45112142Y-51962200D02*
X45254999Y-52009819D01*
X45254999Y-52009819D02*
X45493094Y-52009819D01*
X43969285Y-52009819D02*
X44540713Y-52009819D01*
X44254999Y-52009819D02*
X44254999Y-51009819D01*
X44254999Y-51009819D02*
X44350237Y-51152676D01*
X44350237Y-51152676D02*
X44445475Y-51247914D01*
X44445475Y-51247914D02*
X44540713Y-51295533D01*
X49666666Y-34254819D02*
X49999999Y-33778628D01*
X50238094Y-34254819D02*
X50238094Y-33254819D01*
X50238094Y-33254819D02*
X49857142Y-33254819D01*
X49857142Y-33254819D02*
X49761904Y-33302438D01*
X49761904Y-33302438D02*
X49714285Y-33350057D01*
X49714285Y-33350057D02*
X49666666Y-33445295D01*
X49666666Y-33445295D02*
X49666666Y-33588152D01*
X49666666Y-33588152D02*
X49714285Y-33683390D01*
X49714285Y-33683390D02*
X49761904Y-33731009D01*
X49761904Y-33731009D02*
X49857142Y-33778628D01*
X49857142Y-33778628D02*
X50238094Y-33778628D01*
X49095237Y-33683390D02*
X49190475Y-33635771D01*
X49190475Y-33635771D02*
X49238094Y-33588152D01*
X49238094Y-33588152D02*
X49285713Y-33492914D01*
X49285713Y-33492914D02*
X49285713Y-33445295D01*
X49285713Y-33445295D02*
X49238094Y-33350057D01*
X49238094Y-33350057D02*
X49190475Y-33302438D01*
X49190475Y-33302438D02*
X49095237Y-33254819D01*
X49095237Y-33254819D02*
X48904761Y-33254819D01*
X48904761Y-33254819D02*
X48809523Y-33302438D01*
X48809523Y-33302438D02*
X48761904Y-33350057D01*
X48761904Y-33350057D02*
X48714285Y-33445295D01*
X48714285Y-33445295D02*
X48714285Y-33492914D01*
X48714285Y-33492914D02*
X48761904Y-33588152D01*
X48761904Y-33588152D02*
X48809523Y-33635771D01*
X48809523Y-33635771D02*
X48904761Y-33683390D01*
X48904761Y-33683390D02*
X49095237Y-33683390D01*
X49095237Y-33683390D02*
X49190475Y-33731009D01*
X49190475Y-33731009D02*
X49238094Y-33778628D01*
X49238094Y-33778628D02*
X49285713Y-33873866D01*
X49285713Y-33873866D02*
X49285713Y-34064342D01*
X49285713Y-34064342D02*
X49238094Y-34159580D01*
X49238094Y-34159580D02*
X49190475Y-34207200D01*
X49190475Y-34207200D02*
X49095237Y-34254819D01*
X49095237Y-34254819D02*
X48904761Y-34254819D01*
X48904761Y-34254819D02*
X48809523Y-34207200D01*
X48809523Y-34207200D02*
X48761904Y-34159580D01*
X48761904Y-34159580D02*
X48714285Y-34064342D01*
X48714285Y-34064342D02*
X48714285Y-33873866D01*
X48714285Y-33873866D02*
X48761904Y-33778628D01*
X48761904Y-33778628D02*
X48809523Y-33731009D01*
X48809523Y-33731009D02*
X48904761Y-33683390D01*
X49666666Y-51954819D02*
X49999999Y-51478628D01*
X50238094Y-51954819D02*
X50238094Y-50954819D01*
X50238094Y-50954819D02*
X49857142Y-50954819D01*
X49857142Y-50954819D02*
X49761904Y-51002438D01*
X49761904Y-51002438D02*
X49714285Y-51050057D01*
X49714285Y-51050057D02*
X49666666Y-51145295D01*
X49666666Y-51145295D02*
X49666666Y-51288152D01*
X49666666Y-51288152D02*
X49714285Y-51383390D01*
X49714285Y-51383390D02*
X49761904Y-51431009D01*
X49761904Y-51431009D02*
X49857142Y-51478628D01*
X49857142Y-51478628D02*
X50238094Y-51478628D01*
X49285713Y-51050057D02*
X49238094Y-51002438D01*
X49238094Y-51002438D02*
X49142856Y-50954819D01*
X49142856Y-50954819D02*
X48904761Y-50954819D01*
X48904761Y-50954819D02*
X48809523Y-51002438D01*
X48809523Y-51002438D02*
X48761904Y-51050057D01*
X48761904Y-51050057D02*
X48714285Y-51145295D01*
X48714285Y-51145295D02*
X48714285Y-51240533D01*
X48714285Y-51240533D02*
X48761904Y-51383390D01*
X48761904Y-51383390D02*
X49333332Y-51954819D01*
X49333332Y-51954819D02*
X48714285Y-51954819D01*
X45493094Y-42889819D02*
X45493094Y-41889819D01*
X45493094Y-41889819D02*
X45254999Y-41889819D01*
X45254999Y-41889819D02*
X45112142Y-41937438D01*
X45112142Y-41937438D02*
X45016904Y-42032676D01*
X45016904Y-42032676D02*
X44969285Y-42127914D01*
X44969285Y-42127914D02*
X44921666Y-42318390D01*
X44921666Y-42318390D02*
X44921666Y-42461247D01*
X44921666Y-42461247D02*
X44969285Y-42651723D01*
X44969285Y-42651723D02*
X45016904Y-42746961D01*
X45016904Y-42746961D02*
X45112142Y-42842200D01*
X45112142Y-42842200D02*
X45254999Y-42889819D01*
X45254999Y-42889819D02*
X45493094Y-42889819D01*
X44064523Y-42223152D02*
X44064523Y-42889819D01*
X44302618Y-41842200D02*
X44540713Y-42556485D01*
X44540713Y-42556485D02*
X43921666Y-42556485D01*
X49666666Y-43104819D02*
X49999999Y-42628628D01*
X50238094Y-43104819D02*
X50238094Y-42104819D01*
X50238094Y-42104819D02*
X49857142Y-42104819D01*
X49857142Y-42104819D02*
X49761904Y-42152438D01*
X49761904Y-42152438D02*
X49714285Y-42200057D01*
X49714285Y-42200057D02*
X49666666Y-42295295D01*
X49666666Y-42295295D02*
X49666666Y-42438152D01*
X49666666Y-42438152D02*
X49714285Y-42533390D01*
X49714285Y-42533390D02*
X49761904Y-42581009D01*
X49761904Y-42581009D02*
X49857142Y-42628628D01*
X49857142Y-42628628D02*
X50238094Y-42628628D01*
X48761904Y-42104819D02*
X49238094Y-42104819D01*
X49238094Y-42104819D02*
X49285713Y-42581009D01*
X49285713Y-42581009D02*
X49238094Y-42533390D01*
X49238094Y-42533390D02*
X49142856Y-42485771D01*
X49142856Y-42485771D02*
X48904761Y-42485771D01*
X48904761Y-42485771D02*
X48809523Y-42533390D01*
X48809523Y-42533390D02*
X48761904Y-42581009D01*
X48761904Y-42581009D02*
X48714285Y-42676247D01*
X48714285Y-42676247D02*
X48714285Y-42914342D01*
X48714285Y-42914342D02*
X48761904Y-43009580D01*
X48761904Y-43009580D02*
X48809523Y-43057200D01*
X48809523Y-43057200D02*
X48904761Y-43104819D01*
X48904761Y-43104819D02*
X49142856Y-43104819D01*
X49142856Y-43104819D02*
X49238094Y-43057200D01*
X49238094Y-43057200D02*
X49285713Y-43009580D01*
X45493094Y-33769819D02*
X45493094Y-32769819D01*
X45493094Y-32769819D02*
X45254999Y-32769819D01*
X45254999Y-32769819D02*
X45112142Y-32817438D01*
X45112142Y-32817438D02*
X45016904Y-32912676D01*
X45016904Y-32912676D02*
X44969285Y-33007914D01*
X44969285Y-33007914D02*
X44921666Y-33198390D01*
X44921666Y-33198390D02*
X44921666Y-33341247D01*
X44921666Y-33341247D02*
X44969285Y-33531723D01*
X44969285Y-33531723D02*
X45016904Y-33626961D01*
X45016904Y-33626961D02*
X45112142Y-33722200D01*
X45112142Y-33722200D02*
X45254999Y-33769819D01*
X45254999Y-33769819D02*
X45493094Y-33769819D01*
X44588332Y-32769819D02*
X43921666Y-32769819D01*
X43921666Y-32769819D02*
X44350237Y-33769819D01*
X45493094Y-45929819D02*
X45493094Y-44929819D01*
X45493094Y-44929819D02*
X45254999Y-44929819D01*
X45254999Y-44929819D02*
X45112142Y-44977438D01*
X45112142Y-44977438D02*
X45016904Y-45072676D01*
X45016904Y-45072676D02*
X44969285Y-45167914D01*
X44969285Y-45167914D02*
X44921666Y-45358390D01*
X44921666Y-45358390D02*
X44921666Y-45501247D01*
X44921666Y-45501247D02*
X44969285Y-45691723D01*
X44969285Y-45691723D02*
X45016904Y-45786961D01*
X45016904Y-45786961D02*
X45112142Y-45882200D01*
X45112142Y-45882200D02*
X45254999Y-45929819D01*
X45254999Y-45929819D02*
X45493094Y-45929819D01*
X44588332Y-44929819D02*
X43969285Y-44929819D01*
X43969285Y-44929819D02*
X44302618Y-45310771D01*
X44302618Y-45310771D02*
X44159761Y-45310771D01*
X44159761Y-45310771D02*
X44064523Y-45358390D01*
X44064523Y-45358390D02*
X44016904Y-45406009D01*
X44016904Y-45406009D02*
X43969285Y-45501247D01*
X43969285Y-45501247D02*
X43969285Y-45739342D01*
X43969285Y-45739342D02*
X44016904Y-45834580D01*
X44016904Y-45834580D02*
X44064523Y-45882200D01*
X44064523Y-45882200D02*
X44159761Y-45929819D01*
X44159761Y-45929819D02*
X44445475Y-45929819D01*
X44445475Y-45929819D02*
X44540713Y-45882200D01*
X44540713Y-45882200D02*
X44588332Y-45834580D01*
D11*
%TO.C,D8*%
X43755000Y-30965000D02*
X46615000Y-30965000D01*
X46615000Y-30965000D02*
X46615000Y-32885000D01*
X46615000Y-32885000D02*
X43755000Y-32885000D01*
%TO.C,R7*%
X49272936Y-34365000D02*
X49727064Y-34365000D01*
X49272936Y-35835000D02*
X49727064Y-35835000D01*
%TO.C,D5*%
X43755000Y-40085000D02*
X46615000Y-40085000D01*
X46615000Y-40085000D02*
X46615000Y-42005000D01*
X46615000Y-42005000D02*
X43755000Y-42005000D01*
%TO.C,R3*%
X49272936Y-46165000D02*
X49727064Y-46165000D01*
X49272936Y-47635000D02*
X49727064Y-47635000D01*
%TO.C,R1*%
X49272936Y-52065000D02*
X49727064Y-52065000D01*
X49272936Y-53535000D02*
X49727064Y-53535000D01*
%TO.C,R4*%
X49272936Y-43215000D02*
X49727064Y-43215000D01*
X49272936Y-44685000D02*
X49727064Y-44685000D01*
%TO.C,R6*%
X49272936Y-37315000D02*
X49727064Y-37315000D01*
X49272936Y-38785000D02*
X49727064Y-38785000D01*
%TO.C,D2*%
X43755000Y-49205000D02*
X46615000Y-49205000D01*
X46615000Y-49205000D02*
X46615000Y-51125000D01*
X46615000Y-51125000D02*
X43755000Y-51125000D01*
%TO.C,D6*%
X43755000Y-37045000D02*
X46615000Y-37045000D01*
X46615000Y-37045000D02*
X46615000Y-38965000D01*
X46615000Y-38965000D02*
X43755000Y-38965000D01*
%TO.C,D1*%
X43755000Y-52245000D02*
X46615000Y-52245000D01*
X46615000Y-52245000D02*
X46615000Y-54165000D01*
X46615000Y-54165000D02*
X43755000Y-54165000D01*
%TO.C,R8*%
X49272936Y-31415000D02*
X49727064Y-31415000D01*
X49272936Y-32885000D02*
X49727064Y-32885000D01*
%TO.C,R2*%
X49272936Y-49115000D02*
X49727064Y-49115000D01*
X49272936Y-50585000D02*
X49727064Y-50585000D01*
%TO.C,D4*%
X43755000Y-43125000D02*
X46615000Y-43125000D01*
X46615000Y-43125000D02*
X46615000Y-45045000D01*
X46615000Y-45045000D02*
X43755000Y-45045000D01*
%TO.C,R5*%
X49272936Y-40265000D02*
X49727064Y-40265000D01*
X49272936Y-41735000D02*
X49727064Y-41735000D01*
%TO.C,D7*%
X43755000Y-34005000D02*
X46615000Y-34005000D01*
X46615000Y-34005000D02*
X46615000Y-35925000D01*
X46615000Y-35925000D02*
X43755000Y-35925000D01*
%TO.C,D3*%
X43755000Y-46165000D02*
X46615000Y-46165000D01*
X46615000Y-46165000D02*
X46615000Y-48085000D01*
X46615000Y-48085000D02*
X43755000Y-48085000D01*
%TD*%
M02*
